<svg xmlns="http://www.w3.org/2000/svg" xmlns:xlink="http://www.w3.org/1999/xlink" width="500" zoomAndPan="magnify" viewBox="0 0 375 225" height="300" preserveAspectRatio="xMidYMid meet" version="1.0"><defs><g/></defs><path stroke-linecap="butt" transform="matrix(0.75, 0, 0, 0.75, 67.499997, 30.843759)" fill="none" stroke-linejoin="miter" d="M 87.848966 95.916659 C 94.062508 91.619784 106.406258 81.697908 110.546883 78.338533 L 105.739591 65.838533 C 95.036466 58.963533 78.08334 51.776032 64.95834 46.81249 L 53.281256 61.697908 C 65.11459 65.994783 77.92709 72.401033 84.802091 77.046867 C 82.734382 78.807283 78.70834 81.697908 75.036465 84.390617 Z M 51.052089 178.338537 C 58.70834 179.744788 67.848965 180.562496 76.640632 180.562496 C 92.968758 180.562496 108.161467 174.312496 108.161467 153.026036 C 108.161467 138.338536 98.864591 124.234369 81.911465 107.124993 C 77.77084 102.947909 73.593757 99.119784 68.942715 94.312492 L 53.437506 107.281243 C 58.70834 111.265618 63.984381 115.91666 68.005215 119.744785 C 75.036465 126.812494 86.093757 141.187494 86.093757 150.79687 C 86.093757 158.14062 80.468757 161.031245 72.45834 161.031245 C 64.80209 161.031245 56.796881 159.744787 48.005214 157.35937 Z M 155.036469 159.276037 C 150.234385 144.390619 137.927093 120.406243 128.005217 108.26041 L 110.703133 117.359368 C 121.442717 130.640619 131.833343 153.687495 135.817718 169.510412 Z M 57.614589 139.432286 L 45.583339 123.921869 C 36.17188 134.312494 19.020838 147.593745 5.270837 154.979162 L 17.421879 172.088537 C 34.255214 161.854162 48.786464 148.885411 57.614589 139.432286 Z M 264.494806 108.57291 C 274.729182 118.338535 280.781265 128.57291 280.781265 139.276036 C 280.781265 152.401036 268.635432 162.479162 246.562514 162.479162 C 230.901055 162.479162 222.890638 155.291662 222.890638 142.322911 C 222.890638 139.432286 223.203138 135.447911 223.515638 130.796869 C 225.588555 130.796869 227.85418 130.796869 229.921888 130.796869 C 239.687514 130.796869 248.947931 130.171869 257.932306 129.35416 L 258.401056 110.484368 C 248.010431 111.619785 236.328139 112.401035 226.562513 112.401035 L 225.432305 112.401035 C 226.250013 105.369784 227.187513 97.828117 228.16668 90.796867 C 240.97918 90.796867 249.609389 90.328117 259.026056 89.354159 L 259.687515 70.484366 C 252.151056 71.619783 241.91668 72.244783 230.546888 72.401033 C 231.369805 67.281241 231.838555 63.104158 232.307305 60.406241 C 232.968763 56.229157 233.750013 52.088532 235.04168 46.307282 L 212.812513 45.057282 C 213.125013 50.328115 212.812513 54.781241 212.463554 59.119783 C 212.151054 62.635408 211.838554 66.968741 211.213554 71.776033 C 199.687512 70.796866 187.854178 68.885408 178.713553 65.838533 L 177.619803 84.234367 C 186.875012 86.812492 198.088554 88.729159 209.104179 89.859367 C 208.166679 97.046867 207.343762 104.390618 206.406262 111.421868 C 196.171887 110.484368 185.432303 108.72916 175.197928 105.213534 L 174.062511 124.390619 C 182.578136 126.812494 192.968762 128.57291 204.494804 129.66666 C 203.828137 136.229161 203.359387 141.854161 203.359387 145.682286 C 203.359387 172.088537 220.97918 182.947913 245.937514 182.947913 C 280.625015 182.947913 302.072933 165.682287 302.072933 141.854161 C 302.072933 128.41666 297.265641 117.203118 286.718766 103.765618 Z M 264.494806 108.57291 " stroke="#000000" stroke-width="12" stroke-opacity="1" stroke-miterlimit="4"/><g fill="#d40e0e" fill-opacity="1"><g transform="translate(67.499997, 161.343753)"><g><path d="M 65.875 -58.5625 C 70.5625 -61.796875 79.796875 -69.234375 82.921875 -71.765625 L 79.3125 -81.125 C 71.28125 -86.28125 58.5625 -91.6875 48.71875 -95.40625 L 39.953125 -84.234375 C 48.84375 -81 58.4375 -76.203125 63.59375 -72.71875 C 62.046875 -71.40625 59.046875 -69.234375 56.28125 -67.203125 Z M 38.28125 3.234375 C 44.046875 4.3125 50.875 4.921875 57.484375 4.921875 C 69.71875 4.921875 81.125 0.234375 81.125 -15.71875 C 81.125 -26.765625 74.15625 -37.3125 61.4375 -50.15625 C 58.3125 -53.28125 55.203125 -56.15625 51.71875 -59.765625 L 40.078125 -50.046875 C 44.046875 -47.046875 48 -43.5625 51 -40.6875 C 56.28125 -35.40625 64.5625 -24.59375 64.5625 -17.40625 C 64.5625 -11.875 60.359375 -9.71875 54.359375 -9.71875 C 48.59375 -9.71875 42.59375 -10.6875 36 -12.484375 Z M 116.28125 -11.046875 C 112.6875 -22.203125 103.4375 -40.203125 96 -49.3125 L 83.046875 -42.484375 C 91.078125 -32.515625 98.875 -15.234375 101.875 -3.359375 Z M 43.203125 -25.921875 L 34.203125 -37.5625 C 27.125 -29.765625 14.28125 -19.796875 3.953125 -14.28125 L 13.078125 -1.4375 C 25.6875 -9.125 36.59375 -18.84375 43.203125 -25.921875 Z M 43.203125 -25.921875 "/></g></g></g><g fill="#d40e0e" fill-opacity="1"><g transform="translate(187.500061, 161.343753)"><g><path d="M 78.359375 -49.078125 C 86.046875 -41.765625 90.59375 -34.078125 90.59375 -26.046875 C 90.59375 -16.203125 81.484375 -8.640625 64.921875 -8.640625 C 53.15625 -8.640625 47.15625 -14.046875 47.15625 -23.765625 C 47.15625 -25.921875 47.40625 -28.921875 47.640625 -32.40625 C 49.203125 -32.40625 50.875 -32.40625 52.4375 -32.40625 C 59.765625 -32.40625 66.71875 -32.875 73.4375 -33.484375 L 73.796875 -47.640625 C 66 -46.796875 57.234375 -46.203125 49.921875 -46.203125 L 49.078125 -46.203125 C 49.6875 -51.484375 50.40625 -57.125 51.125 -62.40625 C 60.71875 -62.40625 67.203125 -62.765625 74.28125 -63.484375 L 74.765625 -77.640625 C 69.125 -76.796875 61.4375 -76.3125 52.921875 -76.203125 C 53.515625 -80.046875 53.875 -83.15625 54.234375 -85.203125 C 54.71875 -88.3125 55.3125 -91.4375 56.28125 -95.765625 L 39.59375 -96.71875 C 39.84375 -92.765625 39.59375 -89.40625 39.359375 -86.15625 C 39.125 -83.515625 38.875 -80.28125 38.40625 -76.6875 C 29.765625 -77.40625 20.875 -78.84375 14.046875 -81.125 L 13.203125 -67.3125 C 20.15625 -65.40625 28.5625 -63.953125 36.84375 -63.125 C 36.125 -57.71875 35.515625 -52.203125 34.796875 -46.921875 C 27.125 -47.640625 19.078125 -48.953125 11.40625 -51.59375 L 10.5625 -37.203125 C 16.921875 -35.40625 24.71875 -34.078125 33.359375 -33.234375 C 32.875 -28.3125 32.515625 -24.125 32.515625 -21.234375 C 32.515625 -1.4375 45.71875 6.71875 64.4375 6.71875 C 90.484375 6.71875 106.5625 -6.234375 106.5625 -24.125 C 106.5625 -34.203125 102.953125 -42.59375 95.046875 -52.6875 Z M 78.359375 -49.078125 "/></g></g></g><path stroke-linecap="butt" transform="matrix(0.75, 0, 0, 0.75, 164.999993, 151.968755)" fill="none" stroke-linejoin="miter" d="M 67.56772 37.739578 C 67.708345 38.04687 67.791679 38.374995 67.812512 38.73437 C 67.833345 39.093745 67.729179 39.447912 67.50522 39.807287 C 67.416679 39.979162 67.385429 40.151037 67.406262 40.312495 C 67.427095 40.463537 67.437512 40.645829 67.437512 40.864579 C 67.34897 41.005204 67.234387 41.130204 67.093762 41.239579 C 66.963554 41.348954 66.859387 41.489579 66.770845 41.661454 C 66.682304 41.760412 66.609387 41.874995 66.541679 42.005204 C 66.479179 42.135412 66.354179 42.244787 66.166679 42.32812 C 65.953137 42.286454 65.687512 42.26562 65.369804 42.26562 C 65.057304 42.26562 64.770845 42.26562 64.510429 42.26562 C 63.833345 42.26562 63.234387 42.442704 62.703137 42.802079 C 62.526053 42.973954 62.34897 43.098954 62.166678 43.177079 C 61.989595 43.239579 61.81772 43.317704 61.645845 43.406245 C 61.375012 43.677079 61.281262 43.942704 61.369803 44.20312 L 61.369803 45.468745 C 61.41147 45.869787 61.463553 46.260412 61.531262 46.64062 C 61.604178 47.010412 61.619803 47.416662 61.578137 47.864579 C 61.53647 47.963537 61.53647 48.083329 61.578137 48.239579 C 61.619803 48.390621 61.666678 48.510412 61.708345 48.593746 C 61.666678 48.781246 61.604178 48.927079 61.531262 49.036454 C 61.463553 49.145829 61.41147 49.291662 61.369803 49.473954 C 61.41147 49.645829 61.453137 49.817704 61.500012 49.979162 C 61.552095 50.130204 61.59897 50.291662 61.645845 50.468746 C 61.645845 50.692704 61.619803 50.854162 61.578137 50.937496 C 61.479178 51.197912 61.401053 51.463537 61.333345 51.734371 C 61.270845 52.010412 61.19272 52.276037 61.109387 52.536454 C 60.979178 52.848954 60.953137 53.140621 61.041678 53.411454 C 61.13022 53.671871 61.109387 53.932287 60.979178 54.192704 C 60.979178 55.135412 60.927095 56.057288 60.828137 56.942704 C 60.744803 57.822913 60.677095 58.708329 60.635428 59.598954 C 60.635428 60.760413 60.833345 61.937496 61.239595 63.130204 C 61.421887 63.531246 61.708345 63.729163 62.09897 63.729163 C 62.197928 63.687496 62.302095 63.619788 62.406262 63.536454 C 62.515637 63.447913 62.635428 63.385413 62.765637 63.338538 C 62.906262 63.338538 63.020845 63.385413 63.109387 63.468746 C 63.468762 63.869788 63.869803 64.135413 64.312512 64.265621 C 65.015637 64.442705 65.213554 64.80208 64.901054 65.343746 C 64.770845 65.64583 64.713554 65.979163 64.734387 66.33333 C 64.75522 66.692705 64.744804 67.046871 64.703137 67.390621 C 64.614595 68.380205 64.572929 69.374996 64.572929 70.369788 C 64.572929 71.369788 64.640637 72.380205 64.770845 73.39583 C 64.770845 73.885413 64.734387 74.20833 64.671887 74.359372 C 64.604179 74.52083 64.328137 74.781247 63.838553 75.140622 L 63.645845 75.140622 C 63.28647 75.093747 62.94272 75.046872 62.604178 74.994788 C 62.265637 74.947913 61.947928 74.906247 61.645845 74.86458 C 60.796887 75.005205 60.03647 75.072913 59.364595 75.072913 C 59.062512 75.119788 58.765637 75.192705 58.468762 75.30208 C 58.187512 75.411455 57.869803 75.442705 57.510428 75.401038 C 57.151053 75.312497 56.791678 75.312497 56.437512 75.401038 C 56.078137 75.484372 55.72397 75.531247 55.38022 75.531247 C 55.19272 75.442705 55.026053 75.380205 54.875011 75.33333 C 54.72397 75.291663 54.531261 75.223955 54.302095 75.140622 C 53.239595 75.312497 52.171886 75.421872 51.09897 75.463538 C 50.03647 75.510413 48.947928 75.55208 47.843761 75.593747 C 47.614594 75.291663 47.385428 75.015622 47.161469 74.765622 C 46.942719 74.526038 46.744803 74.27083 46.572928 73.999997 C 46.489594 73.687497 46.317719 73.421872 46.067719 73.203122 C 45.828136 72.973955 45.598969 72.776038 45.369803 72.598955 C 45.328136 72.156247 45.239594 71.734371 45.109386 71.33333 C 45.020844 70.973955 45.020844 70.619788 45.109386 70.27083 C 45.239594 70.046871 45.281261 69.822913 45.239594 69.604163 C 45.151053 69.203121 45.140636 68.791663 45.208344 68.369788 C 45.270844 67.947913 45.348969 67.531246 45.432303 67.130205 L 45.432303 66.33333 C 45.791678 66.249996 46.151053 66.171871 46.510428 66.109371 C 46.864594 66.031246 47.218761 66.041663 47.567719 66.140621 C 47.750011 66.041663 47.906261 65.937496 48.03647 65.828121 C 48.166678 65.723955 48.328136 65.604163 48.510428 65.473955 C 48.729178 65.557288 48.94272 65.64583 49.16147 65.734371 C 49.390636 65.817705 49.640636 65.906246 49.91147 65.994788 C 50.354178 65.734371 50.864595 65.380205 51.437511 64.937496 C 51.526053 64.661455 51.56772 64.463538 51.56772 64.33333 C 51.56772 63.843746 51.56772 63.343746 51.56772 62.833329 C 51.56772 62.328121 51.593761 61.828121 51.635428 61.338538 L 51.635428 61.124996 C 51.463553 60.692704 51.395845 60.276038 51.437511 59.874996 C 51.484386 59.473954 51.484386 59.046871 51.437511 58.604163 L 51.437511 57.739579 C 51.526053 56.713538 51.557303 55.697912 51.53647 54.697912 C 51.515636 53.697912 51.484386 52.692704 51.437511 51.671871 L 51.91147 50.807287 C 51.869803 50.583329 51.81772 50.359371 51.765636 50.140621 C 51.72397 49.911454 51.677095 49.692704 51.635428 49.473954 C 51.677095 49.244787 51.734386 49.046871 51.796886 48.869787 C 51.875011 48.687496 51.932303 48.489579 51.979178 48.270829 C 51.979178 48.098954 51.953136 47.963537 51.91147 47.864579 C 51.682303 47.333329 51.593761 46.843745 51.635428 46.401037 L 51.635428 45.406245 C 51.635428 45.223954 51.593761 45.072912 51.50522 44.968745 C 51.416678 44.85937 51.375011 44.718745 51.375011 44.541662 C 51.416678 44.447912 51.437511 44.244787 51.437511 43.942704 C 51.395845 43.67187 51.354178 43.406245 51.307303 43.145829 C 51.265636 42.874995 51.203136 42.598954 51.114595 42.32812 C 50.885428 42.114579 50.635428 42.036454 50.364595 42.104162 C 50.104178 42.166662 49.859386 42.177079 49.635428 42.135412 C 49.416678 42.04687 49.171886 42.005204 48.901053 42.005204 C 48.640636 42.005204 48.354178 42.005204 48.03647 42.005204 C 47.723969 41.833329 47.375011 41.755204 46.994803 41.776037 C 46.630219 41.79687 46.265636 41.739579 45.906261 41.598954 C 45.734386 41.380204 45.656261 41.119787 45.677094 40.817704 C 45.697928 40.499995 45.645844 40.276037 45.515636 40.135412 C 45.416678 39.958329 45.411469 39.729162 45.500011 39.447912 C 45.598969 39.156245 45.604178 38.895828 45.515636 38.666662 C 45.687511 38.45312 45.708344 38.29687 45.562511 38.213537 C 45.432303 38.114578 45.437511 37.937495 45.583344 37.677078 C 45.713553 37.447912 45.776053 37.192703 45.776053 36.911453 C 45.776053 36.619787 45.864594 36.385412 46.036469 36.208328 C 46.125011 36.114578 46.156261 35.968745 46.135428 35.770828 C 46.114594 35.57812 46.125011 35.385412 46.166678 35.20312 C 46.265636 35.114578 46.463553 35.062495 46.770844 35.036453 C 47.083344 35.01562 47.260428 34.963537 47.307303 34.874995 C 47.479178 34.651037 47.692719 34.489578 47.942719 34.406245 C 48.19272 34.317703 48.447928 34.208328 48.708345 34.07812 C 48.791678 34.07812 48.901053 34.067703 49.031261 34.04687 C 49.171886 34.01562 49.328136 33.999995 49.50522 33.999995 C 49.859386 33.999995 50.239595 33.999995 50.640636 33.999995 C 51.041678 33.999995 51.421886 33.973953 51.781261 33.932287 C 52.13022 33.843745 52.479178 33.770828 52.838553 33.70312 C 53.197928 33.64062 53.578136 33.583328 53.979178 33.541662 C 54.38022 33.45312 54.776053 33.479162 55.166678 33.60937 C 55.750011 33.781245 56.468762 33.760412 57.312512 33.541662 C 57.489595 33.499995 57.640637 33.45312 57.770845 33.411453 C 57.901053 33.35937 58.015637 33.307287 58.114595 33.26562 C 58.416678 33.307287 58.687512 33.35937 58.927095 33.411453 C 59.177095 33.45312 59.390637 33.479162 59.578137 33.479162 C 59.708345 33.479162 59.84897 33.45312 60.000012 33.411453 C 60.16147 33.35937 60.28647 33.32812 60.375012 33.32812 C 60.81772 33.32812 61.229178 33.348953 61.609387 33.380203 C 61.989595 33.401037 62.375012 33.45312 62.765637 33.541662 C 63.614595 33.67187 64.375012 33.713537 65.046887 33.67187 C 65.260429 33.630203 65.447929 33.619787 65.59897 33.64062 C 65.760429 33.661453 65.864595 33.67187 65.906262 33.67187 C 66.22397 33.713537 66.453137 33.817703 66.609387 33.979162 C 66.760429 34.135412 66.88022 34.249995 66.963554 34.338537 C 67.682304 35.04687 67.838554 35.776037 67.437512 36.536453 C 67.395845 36.57812 67.375012 36.739578 67.375012 37.010412 C 67.416679 37.093745 67.447929 37.192703 67.468762 37.302078 C 67.489595 37.411453 67.526054 37.557287 67.56772 37.739578 Z M 99.765638 64.203121 C 99.765638 64.562496 99.776055 64.932288 99.796888 65.307288 C 99.817722 65.67708 99.786472 66.041663 99.69793 66.401038 C 99.614597 66.630205 99.593763 66.828121 99.63543 66.999996 C 99.723972 67.218746 99.734388 67.453121 99.66668 67.703121 C 99.60418 67.942705 99.593763 68.171871 99.63543 68.401038 C 99.723972 68.718746 99.744805 69.062496 99.69793 69.442705 C 99.656263 69.812496 99.656263 70.17708 99.69793 70.531246 C 99.526055 70.848955 99.239597 71.005205 98.838555 71.005205 C 98.390638 71.005205 97.91668 71.026038 97.406263 71.072913 C 96.895847 71.11458 96.395847 71.223955 95.906263 71.39583 C 95.63543 71.484371 95.343763 71.526038 95.031263 71.526038 C 94.723971 71.526038 94.41668 71.526038 94.10418 71.526038 C 93.828138 71.354163 93.630221 71.203121 93.500013 71.072913 C 92.968763 71.244788 92.520846 71.041663 92.16668 70.468746 C 91.989596 70.197913 91.843763 69.911455 91.723971 69.604163 C 91.619805 69.291663 91.562513 68.953121 91.562513 68.598955 C 91.60418 68.23958 91.60418 67.885413 91.562513 67.536455 C 91.520846 67.182288 91.520846 66.80208 91.562513 66.401038 C 91.661471 65.73958 91.57293 65.093746 91.302096 64.463538 C 91.26043 64.33333 91.213555 64.203121 91.171888 64.072913 C 91.130221 63.932288 91.109388 63.796871 91.109388 63.666663 C 91.109388 63.177079 91.078138 62.677079 91.026055 62.166663 C 90.984388 61.656246 90.895846 61.182288 90.765638 60.734371 C 90.723971 60.510413 90.687513 60.296871 90.66668 60.104163 C 90.645846 59.906246 90.63543 59.718746 90.63543 59.531246 C 90.505221 58.999996 90.218763 58.578121 89.770846 58.260413 C 89.72918 57.916663 89.682305 57.593746 89.625013 57.302079 C 89.583346 57.010413 89.515638 56.687496 89.432305 56.343746 C 89.343763 56.244788 89.16668 56.109371 88.895846 55.937496 C 88.718763 55.807288 88.51043 55.697912 88.26043 55.609371 C 88.020846 55.510412 87.791679 55.395829 87.578138 55.265621 C 87.479179 55.182287 87.375013 55.062496 87.265638 54.911454 C 87.156263 54.744787 87.036471 54.598954 86.906263 54.468746 L 86.500013 54.468746 C 86.328138 54.515621 86.171888 54.546871 86.031263 54.567704 C 85.901054 54.588537 85.723971 54.578121 85.510429 54.536454 C 85.411471 54.494787 85.296888 54.479162 85.166679 54.505204 C 85.036471 54.526037 84.927096 54.536454 84.843763 54.536454 C 84.614596 54.848954 84.390638 55.182287 84.177096 55.526037 C 83.989596 55.671871 83.822929 55.796871 83.671888 55.901038 C 83.515638 56.010413 83.395846 56.109371 83.296888 56.197913 C 83.166679 56.338538 83.098971 56.473954 83.098971 56.604163 L 82.630221 57.999996 C 82.723971 58.276038 82.723971 58.536454 82.630221 58.781246 C 82.541679 59.020829 82.567721 59.270829 82.708346 59.531246 C 82.755221 59.661454 82.750013 59.796871 82.692721 59.937496 C 82.651054 60.067704 82.604179 60.177079 82.562513 60.265621 C 82.432304 60.447913 82.411471 60.583329 82.500013 60.671871 C 82.583346 60.760413 82.656263 60.864579 82.708346 60.994788 C 82.755221 61.041663 82.796888 61.130204 82.838554 61.270829 C 82.838554 61.807288 82.838554 62.312496 82.838554 62.802079 C 82.838554 63.291663 82.750013 63.781246 82.562513 64.265621 C 82.604179 64.442705 82.640638 64.609371 82.661471 64.77083 C 82.692721 64.921871 82.729179 65.11458 82.776054 65.343746 C 82.729179 65.604163 82.671888 65.901038 82.593763 66.23958 C 82.531263 66.572913 82.520846 66.916663 82.562513 67.260413 C 82.604179 67.48958 82.619804 67.73958 82.593763 68.010413 C 82.572929 68.27083 82.520846 68.536455 82.432304 68.807288 C 82.390638 68.937496 82.390638 69.067705 82.432304 69.197913 C 82.562513 69.729163 82.562513 70.197913 82.432304 70.598955 C 82.302096 70.999996 82.057304 71.421871 81.703138 71.869788 C 81.656263 71.911455 81.567721 71.953122 81.421888 71.999997 C 81.291679 72.041663 81.187513 72.08333 81.098971 72.130205 C 81.010429 72.223955 80.927096 72.286455 80.838554 72.307288 C 80.750013 72.328122 80.661471 72.359372 80.562513 72.406247 C 80.385429 72.406247 80.208346 72.39583 80.026054 72.374997 C 79.848971 72.348955 79.697929 72.338538 79.567721 72.338538 C 79.395846 72.385413 79.250012 72.437497 79.130221 72.505205 C 79.020846 72.567705 78.859387 72.666663 78.640637 72.796872 C 78.057304 72.70833 77.463554 72.598955 76.869804 72.468747 C 76.270846 72.338538 75.682304 72.385413 75.109387 72.598955 C 74.838554 72.557288 74.609387 72.447913 74.427096 72.276038 C 74.250012 72.088538 74.098971 71.890622 73.968762 71.671871 C 73.796887 71.401038 73.682304 71.104163 73.630221 70.776038 C 73.583346 70.442705 73.520846 70.11458 73.432304 69.80208 C 73.520846 69.041663 73.562512 68.52083 73.562512 68.23958 C 73.562512 67.947913 73.500012 67.291663 73.369804 66.27083 C 73.500012 65.55208 73.583346 64.83333 73.630221 64.104163 C 73.682304 63.369788 73.708346 62.645829 73.708346 61.942704 C 73.708346 61.005204 73.708346 60.052079 73.708346 59.078121 C 73.708346 58.088538 73.729179 57.109371 73.776054 56.130204 C 73.776054 55.869788 73.796887 55.609371 73.838554 55.348954 C 73.885429 55.078121 73.927096 54.828121 73.968762 54.598954 C 74.057304 54.114579 74.145846 53.645829 74.229179 53.203121 C 74.328137 52.755204 74.442721 52.333329 74.572929 51.932287 C 74.661471 51.630204 74.812512 51.369787 75.026054 51.151037 C 75.255221 50.921871 75.411471 50.651037 75.500012 50.338537 C 75.588554 49.718746 75.776054 49.177079 76.067721 48.708329 C 76.364596 48.244787 76.661471 47.786454 76.963554 47.343745 C 77.192721 46.713537 77.593762 46.468745 78.166679 46.60937 C 78.255221 46.60937 78.296887 46.583329 78.296887 46.531245 C 78.442721 46.401037 78.473971 46.223954 78.395846 46.010412 C 78.333346 45.781245 78.390637 45.57812 78.578137 45.406245 C 78.968762 45.04687 79.427096 44.770829 79.958346 44.57812 C 80.500013 44.369787 80.994804 44.182287 81.442721 44.005204 C 81.843763 44.005204 82.109388 44.052079 82.239596 44.135412 C 82.812513 44.312495 83.364596 44.312495 83.895846 44.135412 C 84.296888 44.052079 84.656263 44.156245 84.973971 44.463537 C 85.416679 44.557287 85.838554 44.651037 86.239596 44.739579 C 86.640638 44.822912 87.062513 44.911454 87.494804 44.999995 C 87.677096 44.95312 87.859388 44.92187 88.031263 44.901037 C 88.213555 44.880204 88.395846 44.848954 88.567721 44.802079 C 89.015638 44.979162 89.375013 45.23437 89.661471 45.567704 C 89.953138 45.906245 90.255221 46.249995 90.57293 46.60937 C 90.786471 46.781245 91.031263 46.848954 91.302096 46.807287 C 91.57293 46.760412 91.859388 46.781245 92.16668 46.869787 C 92.390638 47.088537 92.625013 47.333329 92.864596 47.604162 C 93.114596 47.874996 93.369805 48.119787 93.630221 48.333329 C 93.671888 48.510412 93.72918 48.677079 93.79168 48.838537 C 93.869805 48.989579 93.927096 49.156246 93.973971 49.328121 C 94.187513 49.380204 94.338555 49.494787 94.427096 49.671871 C 94.526055 49.843746 94.593763 49.999996 94.640638 50.140621 C 95.083346 50.317704 95.526055 50.447912 95.973971 50.531246 C 96.192722 50.760412 96.38543 51.020829 96.557305 51.312496 C 96.744805 51.593746 97.036472 51.734371 97.437513 51.734371 C 97.526055 52.182287 97.609388 52.583329 97.69793 52.942704 C 97.786472 53.286454 97.875013 53.640621 97.973972 53.999996 C 98.062513 54.671871 98.213555 55.249996 98.432305 55.739579 C 98.614597 56.088538 98.770847 56.453121 98.901055 56.828121 C 99.031263 57.208329 99.098972 57.624996 99.098972 58.067704 C 99.140638 58.338538 99.239597 58.588538 99.390638 58.817704 C 99.552097 59.031246 99.677097 59.270829 99.765638 59.531246 C 99.723972 59.718746 99.687513 59.895829 99.66668 60.067704 C 99.645847 60.244788 99.63543 60.442704 99.63543 60.671871 C 99.63543 60.843746 99.645847 60.999996 99.66668 61.140621 C 99.687513 61.270829 99.723972 61.447913 99.765638 61.661454 C 99.765638 61.749996 99.776055 61.874996 99.796888 62.036454 C 99.817722 62.192704 99.807305 62.307288 99.765638 62.395829 C 99.677097 62.713538 99.656263 63.026038 99.69793 63.338538 C 99.744805 63.645829 99.765638 63.932288 99.765638 64.203121 Z M 133.29689 44.20312 C 133.07814 45.005204 132.942723 45.817704 132.89064 46.64062 C 132.843765 47.458329 132.802098 48.265621 132.760431 49.067704 C 132.713556 49.869787 132.692723 50.682287 132.692723 51.510412 C 132.692723 52.322912 132.692723 53.130204 132.692723 53.932287 C 132.692723 54.604162 132.651056 55.276037 132.562515 55.937496 C 132.473973 56.598954 132.411473 57.286454 132.369806 57.999996 C 132.369806 58.177079 132.354181 58.374996 132.333348 58.604163 C 132.312515 58.822913 132.302098 59.041663 132.302098 59.270829 C 132.302098 59.890621 132.208348 60.463538 132.026056 60.994788 C 131.895848 61.583329 131.82814 62.161454 131.82814 62.739579 C 131.82814 63.041663 131.807306 63.374996 131.76564 63.729163 C 131.723973 64.088538 131.630223 64.447913 131.489598 64.807288 C 131.442723 65.02083 131.42189 65.354163 131.42189 65.796871 C 131.380223 66.156246 131.291681 66.515621 131.161473 66.869788 C 131.07814 67.17708 130.98439 67.473955 130.885431 67.765621 C 130.802098 68.057288 130.713556 68.380205 130.625015 68.729163 C 130.45314 68.999996 130.286473 69.281246 130.119806 69.572913 C 129.968765 69.854163 129.807306 70.130205 129.635431 70.401038 C 129.229181 70.619788 128.895848 70.906246 128.625015 71.265621 C 128.177098 71.624996 127.744806 72.005205 127.322931 72.406247 C 126.911473 72.807288 126.505223 73.182288 126.104181 73.526038 C 125.567723 73.973955 125.031264 74.192705 124.489598 74.192705 C 124.447931 74.192705 124.390639 74.218747 124.328139 74.260413 C 124.260431 74.30208 124.187514 74.322913 124.098973 74.322913 C 123.255223 74.421872 122.562514 74.692705 122.031264 75.140622 C 121.989598 75.182288 121.932306 75.213538 121.854181 75.234372 C 121.786473 75.260413 121.713556 75.312497 121.625014 75.401038 C 121.052098 75.484372 120.458348 75.437497 119.854181 75.255205 C 119.255222 75.078122 118.713556 74.86458 118.223972 74.604163 L 117.166681 74.604163 C 116.984389 74.604163 116.802097 74.593747 116.630222 74.567705 C 116.458347 74.546872 116.255222 74.515622 116.026056 74.473955 C 114.833347 74.203122 113.677097 73.687497 112.562514 72.92708 C 112.432306 72.796872 112.276056 72.70833 112.088556 72.666663 C 111.91668 72.619788 111.718764 72.578122 111.505222 72.536455 C 111.234389 72.48958 110.963555 72.42708 110.687514 72.338538 C 110.427097 72.244788 110.161472 72.151038 109.890639 72.062497 C 109.677097 71.932288 109.494805 71.749996 109.35418 71.510413 C 109.223972 71.260413 109.093764 71.041663 108.963555 70.859371 C 108.750014 70.42708 108.546889 70.015621 108.364597 69.640621 C 108.187514 69.260413 107.989597 68.848955 107.76043 68.401038 C 107.588555 68.041663 107.38543 67.682288 107.156264 67.312496 C 106.942722 66.932288 106.718764 66.58333 106.489597 66.27083 C 106.489597 66.223955 106.51043 66.203121 106.557305 66.203121 C 106.609389 66.203121 106.63543 66.182288 106.63543 66.140621 L 106.489597 65.994788 C 106.489597 66.046871 106.47918 66.08333 106.458347 66.109371 C 106.437514 66.130205 106.427097 66.161455 106.427097 66.203121 C 106.380222 66.161455 106.328139 66.130205 106.265639 66.109371 C 106.19793 66.08333 106.145847 66.046871 106.098972 65.994788 C 105.927097 65.906246 105.79168 65.765621 105.692722 65.567705 C 105.60418 65.36458 105.520847 65.171871 105.432305 64.999996 C 105.562514 64.729163 105.630222 64.374996 105.630222 63.942705 C 105.713555 63.354163 105.692722 62.843746 105.562514 62.395829 C 105.390639 61.734371 105.312514 61.072913 105.333347 60.411454 C 105.359389 59.739579 105.390639 59.041663 105.432305 58.328121 C 105.432305 58.109371 105.520847 57.822913 105.692722 57.463538 C 106.01043 56.718746 106.187514 56.046871 106.22918 55.463537 C 106.677097 54.843746 107.026055 54.182287 107.286472 53.479162 C 107.557305 52.760412 107.875014 52.093746 108.234389 51.473954 C 108.44793 51.380204 108.63543 51.286454 108.786472 51.197912 C 108.94793 51.114579 109.119805 51.046871 109.307305 51.005204 C 109.390639 50.916662 109.458347 50.807287 109.500014 50.677079 C 109.546889 50.536454 109.630222 50.421871 109.76043 50.338537 C 109.890639 50.249996 110.04168 50.171871 110.218764 50.109371 C 110.401055 50.031246 110.609389 49.973954 110.838555 49.932287 C 110.921889 49.802079 111.000014 49.671871 111.062514 49.541662 C 111.130222 49.401037 111.203139 49.260412 111.29168 49.130204 C 111.432305 48.999996 111.526055 48.937496 111.567722 48.937496 C 112.588556 48.578121 113.651056 48.312496 114.760431 48.140621 C 114.942722 48.098954 115.130222 48.062496 115.328139 48.041662 C 115.536472 48.020829 115.723972 47.984371 115.895847 47.927079 C 116.473972 47.755204 117.046889 47.687495 117.625014 47.73437 C 118.208347 47.776037 118.786472 47.776037 119.364597 47.73437 C 119.494806 47.73437 119.635431 47.755204 119.786472 47.796871 C 119.947931 47.843746 120.093764 47.885412 120.223973 47.927079 C 120.369806 47.927079 120.546889 47.979162 120.765639 48.072912 C 120.979181 48.161454 121.114598 48.161454 121.171889 48.072912 C 121.614598 47.979162 121.937514 48.020829 122.130223 48.203121 C 122.328139 48.380204 122.421889 48.463537 122.421889 48.463537 C 122.520848 48.510412 122.713556 48.520829 122.994806 48.499996 C 123.286473 48.473954 123.453139 48.463537 123.500014 48.463537 C 123.901056 48.380204 124.130223 48.192704 124.197931 47.911454 C 124.260431 47.619787 124.250014 47.473954 124.166681 47.473954 L 124.036473 47.343745 C 124.078139 46.755204 124.067723 46.177079 124.000014 45.598954 C 123.937514 45.026037 123.927098 44.45312 123.968764 43.874995 C 124.015639 43.645829 124.036473 43.416662 124.036473 43.177079 C 124.036473 42.927079 124.036473 42.692704 124.036473 42.473954 C 123.989598 42.249995 123.989598 42.036454 124.036473 41.843745 C 124.078139 41.635412 124.098973 41.42187 124.098973 41.208329 C 124.098973 40.979162 124.109389 40.76562 124.130223 40.572912 C 124.156264 40.364579 124.119806 40.197912 124.036473 40.067704 C 123.895848 39.708328 123.833348 39.35937 123.854181 39.010412 C 123.890639 38.651037 123.947931 38.291662 124.036473 37.937495 C 124.166681 37.447912 124.260431 36.958328 124.328139 36.468745 C 124.390639 35.98437 124.380223 35.45312 124.296889 34.874995 L 124.296889 34.536453 C 124.468764 34.088537 124.567723 33.645828 124.588556 33.197912 C 124.619806 32.755203 124.656264 32.35937 124.703139 32.010412 C 124.916681 31.697911 125.197931 31.48437 125.531264 31.374995 C 125.869806 31.260411 126.125014 31.10937 126.296889 30.937495 C 127.010431 30.895828 127.682306 30.895828 128.29689 30.937495 C 128.916681 30.979161 129.541681 30.916661 130.17189 30.744786 C 130.473973 30.874995 130.76564 30.968745 131.04689 31.036453 C 131.343765 31.098953 131.604181 31.156245 131.82814 31.197911 C 132.317723 31.557286 132.562515 32.020828 132.562515 32.598953 C 132.562515 32.82812 132.562515 33.072912 132.562515 33.348953 C 132.562515 33.60937 132.541681 33.874995 132.500015 34.145828 C 132.541681 34.317703 132.604181 34.473953 132.692723 34.614578 C 132.781265 34.744787 132.843765 34.92187 132.89064 35.135412 C 132.843765 35.223953 132.812515 35.348953 132.791681 35.510412 C 132.770848 35.661453 132.73439 35.82812 132.692723 35.999995 C 132.73439 36.182287 132.781265 36.411453 132.822931 36.682287 C 132.864598 36.942703 132.916681 37.182287 132.968765 37.401037 C 132.968765 38.114578 132.979181 38.807287 133.000015 39.48437 C 133.026056 40.145829 133.010431 40.807287 132.968765 41.468745 C 132.968765 42.182287 132.979181 42.656245 133.000015 42.885412 C 133.026056 43.098954 133.119806 43.541662 133.29689 44.20312 Z M 123.562514 60.994788 C 123.432306 60.651038 123.328139 60.307288 123.255223 59.973954 C 123.187514 59.635413 123.114598 59.333329 123.026056 59.062496 C 122.895848 58.755204 122.729181 58.473954 122.520848 58.213538 C 122.328139 57.942704 122.161473 57.651038 122.031264 57.333329 C 121.588556 57.119788 121.250014 56.895829 121.026056 56.666663 C 120.807306 56.583329 120.593764 56.515621 120.390639 56.473954 C 120.192723 56.427079 119.989597 56.385413 119.770847 56.343746 C 119.588556 56.244788 119.416681 56.161454 119.265639 56.098954 C 119.114597 56.031246 118.947931 55.979163 118.760431 55.937496 C 118.447931 56.067704 118.145847 56.203121 117.848972 56.343746 C 117.567722 56.473954 117.296889 56.604163 117.036472 56.734371 C 116.322931 57.046871 115.833347 57.630204 115.572931 58.473954 C 115.515639 58.645829 115.489597 58.828121 115.489597 59.010413 C 115.489597 59.182288 115.468764 59.380204 115.427097 59.598954 C 115.380222 59.739579 115.307306 59.874996 115.197931 60.005204 C 115.088556 60.135413 114.989597 60.312496 114.906264 60.541663 L 114.906264 61.729163 C 114.989597 62.312496 115.156264 62.864579 115.390639 63.374996 C 115.640639 63.880205 116.057306 64.317705 116.630222 64.67708 C 116.760431 64.718746 116.880222 64.791663 116.989597 64.901038 C 117.109389 65.010413 117.255222 65.109371 117.427097 65.197913 C 117.697931 65.468746 117.963556 65.604163 118.223972 65.604163 C 118.942722 65.515621 119.630222 65.437496 120.291681 65.374996 C 120.963556 65.296871 121.609389 65.130205 122.229181 64.869788 C 122.500014 64.640621 122.697931 64.421871 122.828139 64.203121 C 122.958348 64.031246 123.067723 63.86458 123.156264 63.713538 C 123.255223 63.552079 123.369806 63.380204 123.500014 63.192704 L 123.500014 62.072913 C 123.500014 61.843746 123.500014 61.640621 123.500014 61.468746 C 123.500014 61.296871 123.520848 61.135413 123.562514 60.994788 Z M 167.562516 50.468746 C 167.520849 50.911454 167.484391 51.369787 167.447933 51.833329 C 167.427099 52.302079 167.375016 52.755204 167.286474 53.203121 C 167.244808 53.645829 167.223974 54.124996 167.223974 54.635412 C 167.223974 55.145829 167.135433 55.666662 166.963558 56.197913 C 166.875016 56.338538 166.760433 56.484371 166.619808 56.635413 C 166.489599 56.786454 166.359391 56.979163 166.229183 57.203121 C 166.229183 57.380204 166.239599 57.536454 166.260433 57.677079 C 166.281266 57.807288 166.317724 57.958329 166.359391 58.130204 C 166.270849 58.359371 166.135433 58.552079 165.953141 58.703121 C 165.781266 58.854163 165.604183 58.973954 165.432308 59.062496 C 164.989599 59.203121 164.572933 59.338538 164.192724 59.468746 C 163.817724 59.598954 163.427099 59.713538 163.020849 59.807288 C 162.406266 59.895829 161.760433 59.906246 161.088558 59.843746 C 160.427099 59.765621 159.755224 59.755204 159.083349 59.807288 C 158.510432 59.807288 157.895849 59.817704 157.244807 59.843746 C 156.604182 59.864579 155.953141 59.874996 155.291682 59.874996 L 151.567724 59.874996 C 151.380224 60.005204 151.187515 60.046871 150.979182 60.005204 C 150.786474 59.958329 150.598974 59.984371 150.427099 60.067704 C 150.255224 59.984371 150.052099 59.973954 149.822932 60.036454 C 149.60939 60.104163 149.385432 60.088538 149.156265 60.005204 C 148.98439 60.046871 148.817724 60.078121 148.651057 60.104163 C 148.500015 60.124996 148.317724 60.156246 148.098974 60.197913 C 147.916682 60.156246 147.760432 60.104163 147.630224 60.036454 C 147.500015 59.973954 147.338557 60.005204 147.156265 60.135413 C 147.244807 60.265621 147.338557 60.411454 147.447932 60.572913 C 147.567724 60.723954 147.651057 60.911454 147.692724 61.124996 C 147.822932 61.312496 147.932307 61.494788 148.020849 61.682288 C 148.114599 61.854163 148.208349 62.046871 148.29689 62.265621 C 148.380224 62.437496 148.447932 62.630204 148.489599 62.833329 C 148.531265 63.031246 148.57814 63.218746 148.619807 63.406246 C 148.848974 63.619788 149.093765 63.843746 149.354182 64.072913 C 149.625015 64.291663 149.895849 64.510413 150.166682 64.73958 C 150.385432 64.781246 150.60939 64.828121 150.848974 64.869788 C 151.098974 64.911455 151.338557 64.95833 151.567724 64.999996 C 151.82814 65.041663 152.088557 65.088538 152.348974 65.130205 C 152.619807 65.171871 152.911474 65.171871 153.223974 65.130205 C 153.541682 65.041663 153.828141 65.062496 154.088557 65.17708 C 154.359391 65.286455 154.645849 65.36458 154.953141 65.406246 C 155.354182 65.36458 155.765641 65.322913 156.187516 65.276038 C 156.609391 65.223955 157.026057 65.171871 157.427099 65.130205 C 157.598974 64.999996 157.781266 64.880205 157.979182 64.77083 C 158.182307 64.651038 158.380224 64.526038 158.562516 64.39583 C 159.140641 64.265621 159.713557 64.291663 160.291683 64.463538 C 160.421891 64.692705 160.583349 64.916663 160.776058 65.14583 C 160.984391 65.36458 161.177099 65.604163 161.364599 65.86458 C 161.625016 66.265621 161.885433 66.656246 162.145849 67.036455 C 162.416683 67.416663 162.598974 67.848955 162.697933 68.338538 C 162.786474 68.55208 162.916683 68.776038 163.088558 69.005205 C 163.270849 69.218746 163.406266 69.421871 163.494808 69.604163 C 163.536474 69.822913 163.526058 70.026038 163.463558 70.20833 C 163.395849 70.380205 163.338558 70.578121 163.281266 70.791663 C 163.109391 70.979163 162.885433 71.135413 162.614599 71.265621 C 162.572933 71.265621 162.531266 71.307288 162.484391 71.39583 C 162.442724 71.484371 162.380224 71.55208 162.291683 71.609371 C 162.020849 71.781247 161.750016 71.95833 161.479183 72.14583 C 161.218766 72.317705 160.979183 72.48958 160.760433 72.666663 C 160.130224 73.197913 159.484391 73.463538 158.822932 73.463538 C 158.552099 73.463538 158.354182 73.484372 158.223974 73.526038 C 158.005224 73.572913 157.781266 73.661455 157.557307 73.807288 C 157.338557 73.937497 157.093766 74.041663 156.822932 74.130205 C 156.604182 74.130205 156.385432 74.161455 156.156266 74.229163 C 155.937516 74.291663 155.713557 74.354163 155.489599 74.406247 C 155.359391 74.406247 155.203141 74.390622 155.015641 74.359372 C 154.843766 74.338538 154.666682 74.322913 154.494807 74.322913 C 154.093766 74.380205 153.692724 74.359372 153.291682 74.260413 C 152.890641 74.171872 152.489599 74.130205 152.088557 74.130205 C 151.958349 74.088538 151.822932 74.041663 151.682307 73.999997 C 151.552099 73.95833 151.42189 73.937497 151.291682 73.937497 C 150.541682 73.979163 149.82814 73.859372 149.156265 73.578122 C 148.494807 73.286455 147.82814 72.979163 147.156265 72.666663 C 146.625015 72.536455 146.250015 72.291663 146.031265 71.932288 C 145.718765 71.572913 145.369807 71.276038 144.989599 71.036455 C 144.60939 70.786455 144.197932 70.578121 143.755223 70.401038 C 143.494807 70.317705 143.229182 70.197913 142.958348 70.046871 C 142.697932 69.880205 142.411473 69.713538 142.093765 69.541663 C 142.052098 69.354163 141.979182 69.17708 141.885432 69.005205 C 141.79689 68.817705 141.708348 68.640621 141.625015 68.468746 C 141.536473 68.338538 141.411473 68.20833 141.250015 68.078121 C 141.093765 67.937496 140.95314 67.796871 140.822932 67.666663 C 140.692723 67.536455 140.588557 67.380205 140.500015 67.197913 C 140.270848 66.447913 140.041682 65.703121 139.817723 64.968746 C 139.598973 64.229163 139.312515 63.510413 138.95314 62.802079 C 139.005223 62.489579 139.04689 62.166663 139.067723 61.843746 C 139.088557 61.505204 139.052098 61.135413 138.95314 60.734371 C 138.911473 60.651038 138.89064 60.541663 138.89064 60.411454 C 138.89064 60.270829 138.89064 60.156246 138.89064 60.067704 C 138.89064 59.843746 138.901057 59.651038 138.92189 59.499996 C 138.942723 59.348954 138.932307 59.203121 138.89064 59.062496 C 138.843765 58.713538 138.802098 58.359371 138.760432 57.999996 C 138.713557 57.645829 138.73439 57.312496 138.822932 57.010413 C 138.911473 56.651038 138.994807 56.291663 139.083348 55.937496 C 139.182307 55.578121 139.29689 55.197912 139.427098 54.796871 C 139.380223 54.708329 139.35939 54.578121 139.35939 54.406246 C 139.35939 54.218746 139.338557 54.041662 139.29689 53.869787 C 139.380223 53.380204 139.468765 52.890621 139.557307 52.406246 C 139.64064 51.916662 139.755223 51.447912 139.895848 51.005204 C 140.026057 50.734371 140.166682 50.479162 140.322932 50.239579 C 140.48439 49.989579 140.651057 49.734371 140.822932 49.473954 C 141.14064 48.942704 141.385432 48.427079 141.557307 47.927079 C 142.088557 47.666662 142.411473 47.505204 142.51564 47.442704 C 142.635432 47.374995 142.739598 47.276037 142.82814 47.145829 C 142.911473 47.005204 143.20314 46.73437 143.687515 46.333329 C 143.645848 46.20312 143.755223 46.010412 144.01564 45.749995 C 144.286474 45.473954 144.380224 45.249995 144.291682 45.062495 C 144.692724 44.317704 145.270849 43.718745 146.031265 43.276037 C 146.291682 43.088537 146.541682 42.901037 146.781265 42.70312 C 147.031265 42.499995 147.250015 42.307287 147.432307 42.135412 C 147.651057 42.005204 147.854182 41.947912 148.052099 41.973954 C 148.255224 41.994787 148.447932 42.005204 148.619807 42.005204 C 148.760432 41.963537 148.906265 41.927079 149.057307 41.906245 C 149.213557 41.885412 149.380224 41.854162 149.562515 41.807287 C 149.651057 41.76562 149.760432 41.723954 149.89064 41.677079 C 150.020849 41.624995 150.135432 41.552079 150.229182 41.468745 C 150.317724 41.42187 150.406265 41.380204 150.489599 41.338537 C 150.57814 41.291662 150.666682 41.270829 150.750015 41.270829 C 151.156265 41.229162 151.531265 41.119787 151.89064 40.947912 C 152.250016 40.760412 152.578141 40.583329 152.885432 40.411454 C 153.557307 40.67187 154.244807 40.755204 154.953141 40.67187 C 155.395849 40.624995 155.828141 40.645829 156.255224 40.73437 C 156.677099 40.822912 157.067724 40.937495 157.427099 41.07812 L 158.354182 40.802079 C 158.708349 40.843745 159.041682 40.958329 159.343766 41.14062 C 159.661474 41.317704 159.973974 41.489579 160.291683 41.661454 L 160.890641 41.661454 C 160.932308 41.718745 160.979183 41.755204 161.020849 41.776037 C 161.062516 41.79687 161.109391 41.833329 161.151058 41.874995 C 161.640641 42.317704 162.104183 42.729162 162.552099 43.10937 C 162.994808 43.479162 163.463558 43.864579 163.953141 44.26562 C 164.625016 44.713537 165.046891 45.244787 165.218766 45.85937 C 165.406266 46.130204 165.562516 46.333329 165.692724 46.463537 C 166.223974 46.906245 166.692724 47.510412 167.093766 48.270829 C 167.093766 48.359371 167.104183 48.479162 167.125016 48.645829 C 167.145849 48.796871 167.156266 48.937496 167.156266 49.067704 C 167.114599 49.296871 167.156266 49.520829 167.286474 49.749996 C 167.427099 49.968746 167.520849 50.208329 167.562516 50.468746 Z M 159.083349 52.666662 L 159.083349 51.005204 C 159.083349 50.776037 159.062516 50.640621 159.020849 50.598954 C 158.973974 50.468746 158.921891 50.338537 158.859391 50.208329 C 158.791682 50.067704 158.739599 49.973954 158.692724 49.932287 L 158.692724 48.807287 L 158.500016 48.593746 C 158.312516 48.593746 158.093766 48.552079 157.833349 48.463537 C 157.734391 48.062496 157.619807 47.755204 157.489599 47.536454 C 157.359391 47.364579 157.182307 47.255204 156.953141 47.213537 C 156.734391 47.156245 156.489599 47.088537 156.218766 46.999995 C 155.645849 47.187495 155.020849 47.343745 154.348974 47.473954 C 153.687516 47.604162 153.046891 47.781246 152.427099 48.010412 C 152.114599 48.052079 151.822932 48.072912 151.552099 48.072912 C 151.291682 48.072912 151.026057 48.098954 150.750015 48.140621 C 150.307307 48.312496 149.916682 48.588537 149.57814 48.968746 C 149.255224 49.348954 148.937515 49.718746 148.619807 50.078121 C 148.447932 50.291662 148.291682 50.536454 148.151057 50.807287 C 148.020849 51.067704 147.864599 51.312496 147.692724 51.541662 C 147.651057 51.583329 147.630224 51.713537 147.630224 51.932287 C 147.760432 52.291662 147.958349 52.510412 148.229182 52.598954 C 148.489599 52.640621 148.750015 52.713537 149.010432 52.812496 C 149.281265 52.895829 149.572932 52.984371 149.89064 53.072912 C 150.020849 53.026037 150.14064 53.005204 150.250015 53.005204 C 150.369807 53.005204 150.489599 52.984371 150.619807 52.942704 C 151.156265 52.713537 151.598974 52.692704 151.958349 52.874996 C 152.312516 52.916662 152.635432 52.916662 152.916682 52.874996 C 153.208349 52.822912 153.515641 52.770829 153.828141 52.729162 C 154.088557 52.869787 154.364599 52.963537 154.656266 53.005204 C 154.953141 53.046871 155.229182 53.114579 155.489599 53.203121 C 156.062516 53.374996 156.614599 53.463537 157.145849 53.463537 C 157.692724 53.463537 158.229182 53.395829 158.760432 53.265621 C 158.973974 53.046871 159.083349 52.848954 159.083349 52.666662 Z M 204.677101 47.604162 C 204.635434 47.73437 204.614601 47.848954 204.614601 47.942704 C 204.614601 48.031246 204.593768 48.140621 204.546893 48.270829 C 204.375018 48.630204 204.166684 49.010412 203.916684 49.411454 C 203.677101 49.802079 203.375018 50.130204 203.020851 50.401037 C 202.572934 50.760412 202.161476 51.192704 201.781268 51.703121 C 201.401059 52.213537 201.041684 52.713537 200.692726 53.203121 C 200.463559 53.645829 200.239601 53.979162 200.026059 54.192704 C 199.796892 54.421871 199.567726 54.614579 199.343767 54.781246 C 199.125017 54.932287 198.973976 55.093746 198.885434 55.265621 C 198.666684 55.583329 198.427101 55.817704 198.151059 55.968746 C 197.880226 56.119788 197.614601 56.307288 197.354184 56.536454 C 197.213559 56.666663 197.078142 56.822913 196.947934 57.010413 C 196.817726 57.182288 196.708351 57.354163 196.625017 57.531246 C 196.666684 58.114579 196.838559 58.651038 197.145851 59.140621 C 197.458351 59.630204 197.708351 60.140621 197.890642 60.671871 C 198.338559 60.973954 198.723976 61.338538 199.046892 61.760413 C 199.385434 62.182288 199.687517 62.640621 199.958351 63.130204 C 200.307309 63.614579 200.692726 64.08333 201.114601 64.526038 C 201.536476 64.973955 201.973976 65.416663 202.416684 65.86458 C 202.588559 66.046871 202.776059 66.255205 202.968768 66.479163 C 203.177101 66.697913 203.369809 66.916663 203.557309 67.130205 C 203.687518 67.531246 203.828143 67.937496 203.979184 68.338538 C 204.140643 68.73958 204.265643 69.11458 204.354184 69.45833 C 203.953143 70.17708 203.505226 70.843746 203.020851 71.463538 C 203.020851 71.505205 203.010434 71.572913 202.984393 71.671871 C 202.963559 71.760413 202.953143 71.848955 202.953143 71.932288 C 202.822934 72.291663 202.604184 72.536455 202.286476 72.666663 C 202.197934 72.749997 202.088559 72.817705 201.947934 72.859372 C 201.817726 72.906247 201.708351 72.953122 201.619809 73.005205 C 201.447934 73.182288 201.276059 73.369788 201.114601 73.578122 C 200.963559 73.77083 200.796893 73.95833 200.609393 74.130205 C 200.307309 74.218747 200.010434 74.291663 199.713559 74.359372 C 199.432309 74.432288 199.156267 74.515622 198.885434 74.604163 C 198.526059 74.557288 198.296892 74.421872 198.187517 74.192705 C 198.078142 73.979163 197.911476 73.776038 197.682309 73.593747 C 197.510434 73.505205 197.307309 73.406247 197.078142 73.30208 C 196.864601 73.192705 196.619809 73.093747 196.348976 73.005205 C 196.171892 72.692705 195.895851 72.42708 195.515642 72.20833 C 195.135434 71.984372 194.776059 71.781247 194.427101 71.609371 C 194.369809 71.510413 194.322934 71.39583 194.281267 71.265621 C 194.234392 71.135413 194.171892 71.026038 194.083351 70.942705 C 193.953142 70.885413 193.807309 70.838538 193.645851 70.791663 C 193.494809 70.749996 193.375017 70.661455 193.286476 70.531246 C 193.203142 70.447913 193.062517 70.291663 192.880226 70.062496 C 192.578142 69.885413 192.322934 69.651038 192.114601 69.343746 C 191.921892 69.031246 191.70835 68.760413 191.479184 68.531246 C 191.218767 68.27083 190.953142 68.015621 190.682309 67.765621 C 190.421892 67.515621 190.1771 67.260413 189.953142 66.999996 C 189.906267 66.916663 189.875017 66.838538 189.854184 66.776038 C 189.83335 66.697913 189.776059 66.61458 189.692725 66.531246 C 189.505225 66.27083 189.2396 66.140621 188.89585 66.140621 C 188.796892 66.140621 188.744809 66.161455 188.744809 66.203121 C 188.484392 66.421871 188.265642 66.656246 188.078142 66.906246 C 187.906267 67.140621 187.796892 67.442705 187.755225 67.796871 C 187.70835 67.843746 187.687517 67.885413 187.687517 67.92708 C 187.687517 67.973955 187.666684 68.015621 187.625017 68.057288 C 187.307309 68.244788 187.072934 68.484371 186.906267 68.776038 C 186.755225 69.057288 186.572934 69.312496 186.354184 69.541663 C 186.223975 69.755205 186.057309 69.98958 185.848975 70.23958 C 185.656267 70.479163 185.463559 70.713538 185.281267 70.942705 C 185.02085 71.244788 184.755225 71.562496 184.484392 71.901038 C 184.223975 72.234372 183.937517 72.536455 183.619808 72.796872 C 183.401058 72.937497 183.223975 73.11458 183.08335 73.33333 C 182.911475 73.562497 182.750017 73.760413 182.609392 73.937497 C 182.479183 74.109372 182.286475 74.265622 182.026058 74.406247 C 181.796892 74.494788 181.578142 74.61458 181.375017 74.765622 C 181.1771 74.916663 180.953142 75.041663 180.692725 75.140622 C 180.604183 75.140622 180.4896 75.171872 180.348975 75.234372 C 180.218767 75.30208 180.109392 75.380205 180.026058 75.463538 C 179.89585 75.510413 179.781267 75.562497 179.682308 75.624997 C 179.593767 75.692705 179.463558 75.723955 179.291683 75.723955 C 178.932308 75.640622 178.687517 75.510413 178.557308 75.33333 C 178.203142 74.890622 177.906267 74.510413 177.682308 74.192705 C 177.505225 73.848955 177.307308 73.494788 177.078142 73.135413 C 176.859392 72.781247 176.572933 72.442705 176.213558 72.130205 C 175.911475 71.781247 175.6771 71.406246 175.515641 71.005205 C 175.3646 70.604163 175.1771 70.223955 174.963558 69.86458 C 175.135433 69.249996 175.276058 68.781246 175.385433 68.468746 C 175.494808 68.151038 175.625016 67.843746 175.776058 67.536455 C 175.937516 67.223955 176.197933 66.781246 176.557308 66.203121 C 176.916683 65.848955 177.255225 65.468746 177.58335 65.067705 C 177.916683 64.661455 178.223975 64.23958 178.494808 63.796871 C 178.796892 63.265621 179.119808 62.723954 179.453142 62.166663 C 179.791683 61.614579 180.182308 61.114579 180.625017 60.671871 C 180.843767 60.401038 181.057308 60.114579 181.276058 59.807288 C 181.505225 59.494788 181.734392 59.177079 181.95835 58.864579 C 182.046892 58.776038 182.166683 58.682288 182.317725 58.572913 C 182.468767 58.463538 182.593767 58.317704 182.692725 58.130204 C 182.781267 58.046871 182.822933 57.927079 182.822933 57.776038 C 182.822933 57.609371 182.781267 57.510413 182.692725 57.463538 C 182.203142 56.979163 181.70835 56.489579 181.213558 55.999996 C 180.723975 55.510412 180.171892 55.067704 179.5521 54.666662 C 179.33335 54.578121 179.135433 54.458329 178.947933 54.307287 C 178.776058 54.145829 178.604183 54.041662 178.4271 53.999996 C 177.984392 53.781246 177.625017 53.526037 177.354183 53.234371 C 177.08335 52.942704 176.838558 52.598954 176.619808 52.208329 C 176.536475 52.026037 176.421892 51.822912 176.281267 51.604162 C 176.151058 51.380204 176.041683 51.177079 175.953141 51.005204 C 175.510433 50.687496 175.098975 50.390621 174.718766 50.109371 C 174.338558 49.817704 173.9271 49.583329 173.479183 49.411454 C 173.39585 49.223954 173.348975 49.088537 173.348975 48.999996 C 173.348975 48.786454 173.3646 48.588537 173.385433 48.416662 C 173.406266 48.234371 173.416683 48.046871 173.416683 47.864579 C 173.64585 47.73437 173.822933 47.604162 173.953141 47.473954 C 174.08335 47.343745 174.218766 47.208329 174.359391 47.067704 C 174.531266 46.848954 174.630225 46.593745 174.651058 46.302079 C 174.6771 46.010412 174.661475 45.708329 174.619808 45.406245 C 174.750016 45.317704 174.859391 45.23437 174.947933 45.145829 C 175.041683 45.04687 175.135433 44.979162 175.223975 44.932287 C 175.666683 44.802079 176.078142 44.60937 176.45835 44.348954 C 176.838558 44.07812 177.1146 43.739579 177.291683 43.338537 C 177.734392 43.249995 178.156267 43.156245 178.557308 43.04687 C 178.95835 42.927079 179.354183 42.864579 179.744808 42.864579 C 180.02085 42.864579 180.27085 42.833329 180.510433 42.770829 C 180.760433 42.70312 181.02085 42.651037 181.291683 42.604162 C 182.182308 43.182287 182.791683 43.624995 183.1146 43.942704 C 183.453142 44.244787 183.885433 44.817704 184.416684 45.666662 C 184.64585 45.79687 184.911475 45.973954 185.213559 46.20312 C 185.260434 46.333329 185.291684 46.468745 185.312517 46.60937 C 185.343767 46.739579 185.385434 46.869787 185.4271 46.999995 C 185.64585 47.187495 185.859392 47.343745 186.078142 47.473954 C 186.307309 47.604162 186.484392 47.802079 186.6146 48.072912 C 187.375017 48.963537 188.244809 49.677079 189.218767 50.208329 C 189.307309 50.208329 189.442725 50.161454 189.625017 50.078121 C 189.713559 50.020829 189.776059 49.953121 189.822934 49.864579 C 189.8646 49.776037 189.906267 49.713537 189.953142 49.671871 C 190.70835 49.093746 191.354184 48.385412 191.885434 47.536454 C 192.104184 47.182287 192.437517 47.067704 192.880226 47.197912 C 193.062517 47.291662 193.203142 47.291662 193.286476 47.197912 C 193.416684 47.197912 193.484392 47.130204 193.484392 46.999995 C 193.484392 46.427079 193.729184 45.895829 194.213559 45.406245 C 194.401059 45.177079 194.567726 44.95312 194.718767 44.739579 C 194.869809 44.510412 195.083351 44.333329 195.354184 44.20312 C 195.614601 44.026037 195.791684 43.697912 195.890642 43.208329 C 195.932309 42.807287 196.062517 42.489579 196.281267 42.249995 C 196.510434 41.999995 196.776059 41.833329 197.078142 41.744787 C 197.348976 41.786454 197.614601 41.864579 197.875017 41.973954 C 198.145851 42.07812 198.395851 42.156245 198.625017 42.197912 C 198.843767 42.244787 199.057309 42.302079 199.276059 42.380204 C 199.505226 42.442704 199.734392 42.520829 199.958351 42.604162 C 200.135434 42.781245 200.328143 42.958329 200.546893 43.145829 C 200.776059 43.317704 200.973976 43.489579 201.145851 43.666662 L 201.145851 44.463537 C 201.463559 44.963537 201.843768 45.276037 202.286476 45.406245 C 202.505226 45.447912 202.687518 45.505204 202.838559 45.567704 C 203.005226 45.635412 203.171893 45.708329 203.343768 45.79687 L 203.343768 45.85937 C 203.343768 45.85937 203.401059 45.963537 203.505226 46.17187 C 203.625018 46.364579 203.708351 46.57812 203.750018 46.807287 C 203.880226 46.89062 204.020851 47.01562 204.177101 47.182287 C 204.338559 47.333329 204.505226 47.473954 204.677101 47.604162 Z M 204.677101 47.604162 " stroke="#000000" stroke-width="5.000002" stroke-opacity="1" stroke-miterlimit="4"/><g fill="#ffffff" fill-opacity="1"><g transform="translate(196.781242, 207.468753)"><g><path d="M 18.90625 -27.203125 C 19 -26.960938 19.050781 -26.707031 19.0625 -26.4375 C 19.082031 -26.175781 19.007812 -25.914062 18.84375 -25.65625 C 18.78125 -25.519531 18.753906 -25.390625 18.765625 -25.265625 C 18.785156 -25.148438 18.796875 -25.007812 18.796875 -24.84375 C 18.734375 -24.75 18.648438 -24.660156 18.546875 -24.578125 C 18.453125 -24.492188 18.367188 -24.382812 18.296875 -24.25 C 18.234375 -24.1875 18.175781 -24.101562 18.125 -24 C 18.070312 -23.894531 17.976562 -23.8125 17.84375 -23.75 C 17.675781 -23.78125 17.476562 -23.796875 17.25 -23.796875 C 17.019531 -23.796875 16.800781 -23.796875 16.59375 -23.796875 C 16.09375 -23.796875 15.644531 -23.664062 15.25 -23.40625 C 15.113281 -23.269531 14.976562 -23.175781 14.84375 -23.125 C 14.71875 -23.070312 14.585938 -23.015625 14.453125 -22.953125 C 14.253906 -22.753906 14.1875 -22.550781 14.25 -22.34375 L 14.25 -21.40625 C 14.28125 -21.101562 14.320312 -20.804688 14.375 -20.515625 C 14.425781 -20.234375 14.4375 -19.925781 14.40625 -19.59375 C 14.363281 -19.53125 14.359375 -19.441406 14.390625 -19.328125 C 14.429688 -19.210938 14.46875 -19.117188 14.5 -19.046875 C 14.46875 -18.910156 14.425781 -18.800781 14.375 -18.71875 C 14.320312 -18.632812 14.28125 -18.53125 14.25 -18.40625 C 14.28125 -18.269531 14.3125 -18.140625 14.34375 -18.015625 C 14.382812 -17.898438 14.421875 -17.78125 14.453125 -17.65625 C 14.453125 -17.488281 14.4375 -17.367188 14.40625 -17.296875 C 14.332031 -17.097656 14.269531 -16.898438 14.21875 -16.703125 C 14.175781 -16.503906 14.117188 -16.300781 14.046875 -16.09375 C 13.953125 -15.863281 13.9375 -15.648438 14 -15.453125 C 14.0625 -15.253906 14.046875 -15.050781 13.953125 -14.84375 C 13.953125 -14.144531 13.914062 -13.460938 13.84375 -12.796875 C 13.78125 -12.128906 13.734375 -11.460938 13.703125 -10.796875 C 13.703125 -9.929688 13.851562 -9.050781 14.15625 -8.15625 C 14.28125 -7.851562 14.492188 -7.703125 14.796875 -7.703125 C 14.867188 -7.734375 14.945312 -7.78125 15.03125 -7.84375 C 15.113281 -7.914062 15.203125 -7.96875 15.296875 -8 C 15.398438 -8 15.484375 -7.96875 15.546875 -7.90625 C 15.816406 -7.601562 16.117188 -7.398438 16.453125 -7.296875 C 16.984375 -7.160156 17.132812 -6.894531 16.90625 -6.5 C 16.800781 -6.269531 16.753906 -6.019531 16.765625 -5.75 C 16.785156 -5.476562 16.78125 -5.210938 16.75 -4.953125 C 16.6875 -4.210938 16.65625 -3.46875 16.65625 -2.71875 C 16.65625 -1.96875 16.703125 -1.210938 16.796875 -0.453125 C 16.796875 -0.0859375 16.769531 0.148438 16.71875 0.265625 C 16.675781 0.390625 16.46875 0.582031 16.09375 0.84375 L 15.953125 0.84375 C 15.679688 0.8125 15.421875 0.78125 15.171875 0.75 C 14.921875 0.71875 14.679688 0.6875 14.453125 0.65625 C 13.816406 0.75 13.25 0.796875 12.75 0.796875 C 12.519531 0.828125 12.296875 0.882812 12.078125 0.96875 C 11.859375 1.050781 11.613281 1.078125 11.34375 1.046875 C 11.082031 0.984375 10.816406 0.984375 10.546875 1.046875 C 10.285156 1.117188 10.019531 1.15625 9.75 1.15625 C 9.613281 1.082031 9.488281 1.03125 9.375 1 C 9.257812 0.96875 9.117188 0.914062 8.953125 0.84375 C 8.148438 0.976562 7.347656 1.0625 6.546875 1.09375 C 5.742188 1.132812 4.925781 1.171875 4.09375 1.203125 C 3.925781 0.960938 3.757812 0.75 3.59375 0.5625 C 3.425781 0.382812 3.28125 0.195312 3.15625 0 C 3.082031 -0.226562 2.953125 -0.425781 2.765625 -0.59375 C 2.585938 -0.757812 2.414062 -0.910156 2.25 -1.046875 C 2.21875 -1.378906 2.148438 -1.695312 2.046875 -2 C 1.984375 -2.269531 1.984375 -2.535156 2.046875 -2.796875 C 2.148438 -2.960938 2.1875 -3.128906 2.15625 -3.296875 C 2.082031 -3.597656 2.070312 -3.90625 2.125 -4.21875 C 2.175781 -4.539062 2.234375 -4.851562 2.296875 -5.15625 L 2.296875 -5.75 C 2.566406 -5.8125 2.832031 -5.867188 3.09375 -5.921875 C 3.363281 -5.972656 3.632812 -5.96875 3.90625 -5.90625 C 4.03125 -5.96875 4.144531 -6.039062 4.25 -6.125 C 4.351562 -6.207031 4.46875 -6.300781 4.59375 -6.40625 C 4.757812 -6.332031 4.925781 -6.257812 5.09375 -6.1875 C 5.257812 -6.125 5.445312 -6.0625 5.65625 -6 C 5.988281 -6.195312 6.367188 -6.460938 6.796875 -6.796875 C 6.867188 -6.992188 6.90625 -7.144531 6.90625 -7.25 C 6.90625 -7.613281 6.90625 -7.988281 6.90625 -8.375 C 6.90625 -8.757812 6.921875 -9.132812 6.953125 -9.5 L 6.953125 -9.65625 C 6.816406 -9.988281 6.765625 -10.300781 6.796875 -10.59375 C 6.828125 -10.894531 6.828125 -11.210938 6.796875 -11.546875 L 6.796875 -12.203125 C 6.867188 -12.960938 6.894531 -13.71875 6.875 -14.46875 C 6.851562 -15.21875 6.828125 -15.976562 6.796875 -16.75 L 7.15625 -17.40625 C 7.113281 -17.570312 7.078125 -17.738281 7.046875 -17.90625 C 7.015625 -18.070312 6.984375 -18.238281 6.953125 -18.40625 C 6.984375 -18.570312 7.023438 -18.71875 7.078125 -18.84375 C 7.128906 -18.976562 7.171875 -19.128906 7.203125 -19.296875 C 7.203125 -19.429688 7.1875 -19.53125 7.15625 -19.59375 C 6.988281 -20 6.921875 -20.367188 6.953125 -20.703125 L 6.953125 -21.453125 C 6.953125 -21.585938 6.914062 -21.695312 6.84375 -21.78125 C 6.78125 -21.863281 6.75 -21.96875 6.75 -22.09375 C 6.78125 -22.164062 6.796875 -22.316406 6.796875 -22.546875 C 6.765625 -22.742188 6.734375 -22.941406 6.703125 -23.140625 C 6.671875 -23.347656 6.617188 -23.550781 6.546875 -23.75 C 6.378906 -23.914062 6.195312 -23.972656 6 -23.921875 C 5.800781 -23.867188 5.617188 -23.863281 5.453125 -23.90625 C 5.285156 -23.96875 5.097656 -24 4.890625 -24 C 4.691406 -24 4.476562 -24 4.25 -24 C 4.019531 -24.132812 3.757812 -24.191406 3.46875 -24.171875 C 3.1875 -24.160156 2.914062 -24.203125 2.65625 -24.296875 C 2.519531 -24.460938 2.457031 -24.660156 2.46875 -24.890625 C 2.488281 -25.128906 2.445312 -25.300781 2.34375 -25.40625 C 2.28125 -25.53125 2.28125 -25.703125 2.34375 -25.921875 C 2.414062 -26.140625 2.414062 -26.332031 2.34375 -26.5 C 2.476562 -26.664062 2.492188 -26.78125 2.390625 -26.84375 C 2.296875 -26.914062 2.300781 -27.050781 2.40625 -27.25 C 2.5 -27.414062 2.546875 -27.609375 2.546875 -27.828125 C 2.546875 -28.046875 2.613281 -28.21875 2.75 -28.34375 C 2.8125 -28.414062 2.832031 -28.523438 2.8125 -28.671875 C 2.800781 -28.828125 2.8125 -28.96875 2.84375 -29.09375 C 2.914062 -29.164062 3.066406 -29.207031 3.296875 -29.21875 C 3.535156 -29.238281 3.671875 -29.28125 3.703125 -29.34375 C 3.835938 -29.507812 3.992188 -29.625 4.171875 -29.6875 C 4.359375 -29.757812 4.550781 -29.847656 4.75 -29.953125 C 4.8125 -29.953125 4.894531 -29.957031 5 -29.96875 C 5.101562 -29.988281 5.21875 -30 5.34375 -30 C 5.613281 -30 5.898438 -30 6.203125 -30 C 6.503906 -30 6.785156 -30.015625 7.046875 -30.046875 C 7.316406 -30.117188 7.582031 -30.175781 7.84375 -30.21875 C 8.113281 -30.269531 8.398438 -30.3125 8.703125 -30.34375 C 9.003906 -30.414062 9.300781 -30.398438 9.59375 -30.296875 C 10.03125 -30.160156 10.566406 -30.175781 11.203125 -30.34375 C 11.335938 -30.382812 11.453125 -30.421875 11.546875 -30.453125 C 11.648438 -30.484375 11.734375 -30.515625 11.796875 -30.546875 C 12.035156 -30.515625 12.242188 -30.484375 12.421875 -30.453125 C 12.609375 -30.421875 12.769531 -30.40625 12.90625 -30.40625 C 13 -30.40625 13.101562 -30.421875 13.21875 -30.453125 C 13.34375 -30.484375 13.4375 -30.5 13.5 -30.5 C 13.832031 -30.5 14.140625 -30.488281 14.421875 -30.46875 C 14.703125 -30.457031 14.992188 -30.414062 15.296875 -30.34375 C 15.929688 -30.25 16.5 -30.21875 17 -30.25 C 17.164062 -30.28125 17.304688 -30.285156 17.421875 -30.265625 C 17.535156 -30.253906 17.613281 -30.25 17.65625 -30.25 C 17.882812 -30.21875 18.054688 -30.140625 18.171875 -30.015625 C 18.285156 -29.898438 18.378906 -29.8125 18.453125 -29.75 C 18.984375 -29.21875 19.097656 -28.664062 18.796875 -28.09375 C 18.765625 -28.0625 18.75 -27.945312 18.75 -27.75 C 18.78125 -27.6875 18.800781 -27.613281 18.8125 -27.53125 C 18.832031 -27.445312 18.863281 -27.335938 18.90625 -27.203125 Z M 18.90625 -27.203125 "/></g></g></g><g fill="#ffffff" fill-opacity="1"><g transform="translate(217.877978, 207.468753)"><g><path d="M 21.953125 -7.34375 C 21.953125 -7.082031 21.957031 -6.804688 21.96875 -6.515625 C 21.988281 -6.234375 21.96875 -5.960938 21.90625 -5.703125 C 21.832031 -5.535156 21.8125 -5.382812 21.84375 -5.25 C 21.914062 -5.082031 21.925781 -4.90625 21.875 -4.71875 C 21.820312 -4.539062 21.8125 -4.367188 21.84375 -4.203125 C 21.914062 -3.960938 21.929688 -3.703125 21.890625 -3.421875 C 21.859375 -3.140625 21.863281 -2.863281 21.90625 -2.59375 C 21.769531 -2.363281 21.550781 -2.25 21.25 -2.25 C 20.914062 -2.25 20.554688 -2.234375 20.171875 -2.203125 C 19.785156 -2.171875 19.410156 -2.085938 19.046875 -1.953125 C 18.847656 -1.878906 18.628906 -1.84375 18.390625 -1.84375 C 18.160156 -1.84375 17.929688 -1.84375 17.703125 -1.84375 C 17.503906 -1.976562 17.351562 -2.097656 17.25 -2.203125 C 16.851562 -2.066406 16.519531 -2.21875 16.25 -2.65625 C 16.113281 -2.851562 16.003906 -3.066406 15.921875 -3.296875 C 15.835938 -3.535156 15.796875 -3.785156 15.796875 -4.046875 C 15.828125 -4.316406 15.828125 -4.582031 15.796875 -4.84375 C 15.765625 -5.113281 15.765625 -5.398438 15.796875 -5.703125 C 15.867188 -6.203125 15.800781 -6.6875 15.59375 -7.15625 C 15.5625 -7.25 15.53125 -7.34375 15.5 -7.4375 C 15.46875 -7.539062 15.453125 -7.644531 15.453125 -7.75 C 15.453125 -8.113281 15.429688 -8.488281 15.390625 -8.875 C 15.359375 -9.257812 15.296875 -9.617188 15.203125 -9.953125 C 15.171875 -10.117188 15.144531 -10.273438 15.125 -10.421875 C 15.101562 -10.578125 15.09375 -10.71875 15.09375 -10.84375 C 15 -11.25 14.785156 -11.566406 14.453125 -11.796875 C 14.421875 -12.066406 14.382812 -12.304688 14.34375 -12.515625 C 14.3125 -12.734375 14.265625 -12.976562 14.203125 -13.25 C 14.128906 -13.3125 13.992188 -13.410156 13.796875 -13.546875 C 13.660156 -13.648438 13.5 -13.734375 13.3125 -13.796875 C 13.132812 -13.867188 12.960938 -13.953125 12.796875 -14.046875 C 12.734375 -14.117188 12.660156 -14.210938 12.578125 -14.328125 C 12.492188 -14.441406 12.398438 -14.550781 12.296875 -14.65625 L 12 -14.65625 C 11.863281 -14.613281 11.742188 -14.582031 11.640625 -14.5625 C 11.546875 -14.550781 11.414062 -14.5625 11.25 -14.59375 C 11.1875 -14.632812 11.101562 -14.644531 11 -14.625 C 10.894531 -14.601562 10.8125 -14.59375 10.75 -14.59375 C 10.582031 -14.363281 10.414062 -14.113281 10.25 -13.84375 C 10.113281 -13.75 9.988281 -13.660156 9.875 -13.578125 C 9.757812 -13.492188 9.664062 -13.414062 9.59375 -13.34375 C 9.5 -13.25 9.453125 -13.148438 9.453125 -13.046875 L 9.09375 -12 C 9.164062 -11.800781 9.164062 -11.609375 9.09375 -11.421875 C 9.03125 -11.242188 9.050781 -11.050781 9.15625 -10.84375 C 9.1875 -10.75 9.179688 -10.648438 9.140625 -10.546875 C 9.109375 -10.453125 9.078125 -10.367188 9.046875 -10.296875 C 8.953125 -10.160156 8.9375 -10.0625 9 -10 C 9.0625 -9.9375 9.113281 -9.851562 9.15625 -9.75 C 9.1875 -9.71875 9.21875 -9.648438 9.25 -9.546875 C 9.25 -9.148438 9.25 -8.765625 9.25 -8.390625 C 9.25 -8.023438 9.179688 -7.660156 9.046875 -7.296875 C 9.078125 -7.160156 9.101562 -7.035156 9.125 -6.921875 C 9.144531 -6.804688 9.171875 -6.664062 9.203125 -6.5 C 9.171875 -6.300781 9.128906 -6.078125 9.078125 -5.828125 C 9.023438 -5.578125 9.015625 -5.316406 9.046875 -5.046875 C 9.078125 -4.878906 9.082031 -4.695312 9.0625 -4.5 C 9.050781 -4.300781 9.015625 -4.101562 8.953125 -3.90625 C 8.921875 -3.800781 8.921875 -3.695312 8.953125 -3.59375 C 9.046875 -3.195312 9.039062 -2.847656 8.9375 -2.546875 C 8.84375 -2.242188 8.664062 -1.925781 8.40625 -1.59375 C 8.363281 -1.5625 8.289062 -1.53125 8.1875 -1.5 C 8.09375 -1.46875 8.015625 -1.4375 7.953125 -1.40625 C 7.878906 -1.332031 7.8125 -1.285156 7.75 -1.265625 C 7.6875 -1.253906 7.617188 -1.234375 7.546875 -1.203125 C 7.410156 -1.203125 7.273438 -1.207031 7.140625 -1.21875 C 7.015625 -1.238281 6.898438 -1.25 6.796875 -1.25 C 6.660156 -1.21875 6.550781 -1.175781 6.46875 -1.125 C 6.382812 -1.070312 6.257812 -1 6.09375 -0.90625 C 5.664062 -0.96875 5.222656 -1.046875 4.765625 -1.140625 C 4.316406 -1.242188 3.878906 -1.210938 3.453125 -1.046875 C 3.253906 -1.078125 3.085938 -1.160156 2.953125 -1.296875 C 2.816406 -1.429688 2.695312 -1.582031 2.59375 -1.75 C 2.46875 -1.945312 2.382812 -2.171875 2.34375 -2.421875 C 2.3125 -2.671875 2.265625 -2.914062 2.203125 -3.15625 C 2.265625 -3.71875 2.296875 -4.109375 2.296875 -4.328125 C 2.296875 -4.546875 2.25 -5.035156 2.15625 -5.796875 C 2.25 -6.328125 2.3125 -6.867188 2.34375 -7.421875 C 2.382812 -7.972656 2.40625 -8.515625 2.40625 -9.046875 C 2.40625 -9.742188 2.40625 -10.457031 2.40625 -11.1875 C 2.40625 -11.925781 2.421875 -12.664062 2.453125 -13.40625 C 2.453125 -13.601562 2.46875 -13.800781 2.5 -14 C 2.53125 -14.195312 2.5625 -14.378906 2.59375 -14.546875 C 2.664062 -14.910156 2.734375 -15.257812 2.796875 -15.59375 C 2.867188 -15.925781 2.953125 -16.242188 3.046875 -16.546875 C 3.117188 -16.785156 3.238281 -16.988281 3.40625 -17.15625 C 3.570312 -17.320312 3.6875 -17.519531 3.75 -17.75 C 3.8125 -18.21875 3.953125 -18.625 4.171875 -18.96875 C 4.390625 -19.320312 4.613281 -19.664062 4.84375 -20 C 5.007812 -20.46875 5.3125 -20.648438 5.75 -20.546875 C 5.8125 -20.546875 5.84375 -20.5625 5.84375 -20.59375 C 5.945312 -20.695312 5.972656 -20.832031 5.921875 -21 C 5.867188 -21.164062 5.910156 -21.316406 6.046875 -21.453125 C 6.347656 -21.710938 6.695312 -21.914062 7.09375 -22.0625 C 7.5 -22.21875 7.867188 -22.363281 8.203125 -22.5 C 8.503906 -22.5 8.703125 -22.46875 8.796875 -22.40625 C 9.234375 -22.269531 9.648438 -22.269531 10.046875 -22.40625 C 10.347656 -22.46875 10.613281 -22.382812 10.84375 -22.15625 C 11.175781 -22.082031 11.492188 -22.007812 11.796875 -21.9375 C 12.097656 -21.875 12.414062 -21.8125 12.75 -21.75 C 12.882812 -21.78125 13.015625 -21.800781 13.140625 -21.8125 C 13.273438 -21.832031 13.410156 -21.863281 13.546875 -21.90625 C 13.878906 -21.769531 14.15625 -21.578125 14.375 -21.328125 C 14.59375 -21.078125 14.816406 -20.816406 15.046875 -20.546875 C 15.210938 -20.410156 15.394531 -20.359375 15.59375 -20.390625 C 15.800781 -20.429688 16.019531 -20.414062 16.25 -20.34375 C 16.414062 -20.175781 16.585938 -19.992188 16.765625 -19.796875 C 16.953125 -19.597656 17.144531 -19.414062 17.34375 -19.25 C 17.382812 -19.113281 17.425781 -18.988281 17.46875 -18.875 C 17.519531 -18.757812 17.5625 -18.632812 17.59375 -18.5 C 17.757812 -18.46875 17.875 -18.382812 17.9375 -18.25 C 18.007812 -18.113281 18.0625 -18 18.09375 -17.90625 C 18.425781 -17.769531 18.757812 -17.664062 19.09375 -17.59375 C 19.257812 -17.425781 19.410156 -17.234375 19.546875 -17.015625 C 19.679688 -16.804688 19.898438 -16.703125 20.203125 -16.703125 C 20.265625 -16.367188 20.328125 -16.066406 20.390625 -15.796875 C 20.460938 -15.535156 20.53125 -15.269531 20.59375 -15 C 20.664062 -14.5 20.785156 -14.066406 20.953125 -13.703125 C 21.085938 -13.429688 21.203125 -13.15625 21.296875 -12.875 C 21.398438 -12.59375 21.453125 -12.285156 21.453125 -11.953125 C 21.484375 -11.753906 21.554688 -11.570312 21.671875 -11.40625 C 21.785156 -11.238281 21.878906 -11.050781 21.953125 -10.84375 C 21.921875 -10.71875 21.894531 -10.585938 21.875 -10.453125 C 21.851562 -10.316406 21.84375 -10.164062 21.84375 -10 C 21.84375 -9.863281 21.851562 -9.742188 21.875 -9.640625 C 21.894531 -9.546875 21.921875 -9.414062 21.953125 -9.25 C 21.953125 -9.1875 21.957031 -9.09375 21.96875 -8.96875 C 21.988281 -8.851562 21.984375 -8.765625 21.953125 -8.703125 C 21.878906 -8.460938 21.859375 -8.226562 21.890625 -8 C 21.929688 -7.769531 21.953125 -7.550781 21.953125 -7.34375 Z M 21.953125 -7.34375 "/></g></g></g><g fill="#ffffff" fill-opacity="1"><g transform="translate(242.024244, 207.468753)"><g><path d="M 22.953125 -22.34375 C 22.785156 -21.75 22.679688 -21.140625 22.640625 -20.515625 C 22.609375 -19.898438 22.578125 -19.296875 22.546875 -18.703125 C 22.515625 -18.097656 22.5 -17.488281 22.5 -16.875 C 22.5 -16.257812 22.5 -15.648438 22.5 -15.046875 C 22.5 -14.546875 22.460938 -14.046875 22.390625 -13.546875 C 22.328125 -13.046875 22.28125 -12.53125 22.25 -12 C 22.25 -11.863281 22.238281 -11.710938 22.21875 -11.546875 C 22.207031 -11.378906 22.203125 -11.210938 22.203125 -11.046875 C 22.203125 -10.578125 22.132812 -10.144531 22 -9.75 C 21.894531 -9.3125 21.84375 -8.878906 21.84375 -8.453125 C 21.84375 -8.210938 21.828125 -7.957031 21.796875 -7.6875 C 21.765625 -7.425781 21.695312 -7.164062 21.59375 -6.90625 C 21.5625 -6.738281 21.546875 -6.488281 21.546875 -6.15625 C 21.515625 -5.882812 21.445312 -5.613281 21.34375 -5.34375 C 21.28125 -5.113281 21.210938 -4.890625 21.140625 -4.671875 C 21.078125 -4.453125 21.015625 -4.210938 20.953125 -3.953125 C 20.816406 -3.753906 20.691406 -3.546875 20.578125 -3.328125 C 20.460938 -3.109375 20.335938 -2.898438 20.203125 -2.703125 C 19.898438 -2.535156 19.648438 -2.316406 19.453125 -2.046875 C 19.117188 -1.785156 18.789062 -1.503906 18.46875 -1.203125 C 18.15625 -0.898438 17.847656 -0.613281 17.546875 -0.34375 C 17.148438 -0.0078125 16.75 0.15625 16.34375 0.15625 C 16.3125 0.15625 16.269531 0.171875 16.21875 0.203125 C 16.175781 0.234375 16.117188 0.25 16.046875 0.25 C 15.410156 0.3125 14.894531 0.507812 14.5 0.84375 C 14.46875 0.882812 14.425781 0.910156 14.375 0.921875 C 14.320312 0.941406 14.265625 0.984375 14.203125 1.046875 C 13.765625 1.117188 13.320312 1.085938 12.875 0.953125 C 12.425781 0.816406 12.019531 0.648438 11.65625 0.453125 L 10.84375 0.453125 C 10.71875 0.453125 10.585938 0.441406 10.453125 0.421875 C 10.316406 0.410156 10.164062 0.382812 10 0.34375 C 9.101562 0.144531 8.238281 -0.234375 7.40625 -0.796875 C 7.300781 -0.898438 7.179688 -0.96875 7.046875 -1 C 6.910156 -1.03125 6.757812 -1.0625 6.59375 -1.09375 C 6.394531 -1.132812 6.195312 -1.1875 6 -1.25 C 5.800781 -1.3125 5.601562 -1.378906 5.40625 -1.453125 C 5.238281 -1.546875 5.101562 -1.6875 5 -1.875 C 4.894531 -2.0625 4.796875 -2.21875 4.703125 -2.34375 C 4.535156 -2.675781 4.382812 -2.984375 4.25 -3.265625 C 4.113281 -3.554688 3.960938 -3.867188 3.796875 -4.203125 C 3.660156 -4.460938 3.507812 -4.734375 3.34375 -5.015625 C 3.175781 -5.304688 3.007812 -5.566406 2.84375 -5.796875 C 2.84375 -5.828125 2.859375 -5.84375 2.890625 -5.84375 C 2.929688 -5.84375 2.953125 -5.863281 2.953125 -5.90625 L 2.84375 -6 C 2.84375 -5.96875 2.832031 -5.941406 2.8125 -5.921875 C 2.800781 -5.910156 2.796875 -5.882812 2.796875 -5.84375 C 2.765625 -5.882812 2.722656 -5.910156 2.671875 -5.921875 C 2.617188 -5.941406 2.578125 -5.96875 2.546875 -6 C 2.410156 -6.0625 2.3125 -6.164062 2.25 -6.3125 C 2.1875 -6.46875 2.117188 -6.613281 2.046875 -6.75 C 2.148438 -6.945312 2.203125 -7.210938 2.203125 -7.546875 C 2.265625 -7.984375 2.25 -8.367188 2.15625 -8.703125 C 2.019531 -9.203125 1.957031 -9.703125 1.96875 -10.203125 C 1.988281 -10.703125 2.015625 -11.21875 2.046875 -11.75 C 2.046875 -11.914062 2.113281 -12.132812 2.25 -12.40625 C 2.476562 -12.96875 2.613281 -13.46875 2.65625 -13.90625 C 2.988281 -14.363281 3.253906 -14.859375 3.453125 -15.390625 C 3.648438 -15.929688 3.882812 -16.4375 4.15625 -16.90625 C 4.320312 -16.96875 4.460938 -17.03125 4.578125 -17.09375 C 4.691406 -17.164062 4.816406 -17.21875 4.953125 -17.25 C 5.015625 -17.3125 5.0625 -17.394531 5.09375 -17.5 C 5.132812 -17.601562 5.203125 -17.6875 5.296875 -17.75 C 5.398438 -17.8125 5.515625 -17.867188 5.640625 -17.921875 C 5.773438 -17.972656 5.925781 -18.015625 6.09375 -18.046875 C 6.164062 -18.148438 6.222656 -18.25 6.265625 -18.34375 C 6.316406 -18.445312 6.378906 -18.550781 6.453125 -18.65625 C 6.546875 -18.75 6.613281 -18.796875 6.65625 -18.796875 C 7.414062 -19.066406 8.210938 -19.269531 9.046875 -19.40625 C 9.179688 -19.4375 9.320312 -19.457031 9.46875 -19.46875 C 9.625 -19.488281 9.769531 -19.515625 9.90625 -19.546875 C 10.332031 -19.679688 10.757812 -19.734375 11.1875 -19.703125 C 11.625 -19.671875 12.0625 -19.671875 12.5 -19.703125 C 12.601562 -19.703125 12.710938 -19.679688 12.828125 -19.640625 C 12.941406 -19.609375 13.050781 -19.578125 13.15625 -19.546875 C 13.25 -19.546875 13.378906 -19.507812 13.546875 -19.4375 C 13.710938 -19.375 13.8125 -19.378906 13.84375 -19.453125 C 14.175781 -19.515625 14.414062 -19.476562 14.5625 -19.34375 C 14.71875 -19.21875 14.796875 -19.15625 14.796875 -19.15625 C 14.867188 -19.113281 15.007812 -19.101562 15.21875 -19.125 C 15.4375 -19.144531 15.5625 -19.15625 15.59375 -19.15625 C 15.894531 -19.21875 16.070312 -19.359375 16.125 -19.578125 C 16.175781 -19.796875 16.164062 -19.90625 16.09375 -19.90625 L 16 -20 C 16.03125 -20.4375 16.019531 -20.867188 15.96875 -21.296875 C 15.925781 -21.734375 15.921875 -22.164062 15.953125 -22.59375 C 15.984375 -22.757812 16 -22.9375 16 -23.125 C 16 -23.3125 16 -23.488281 16 -23.65625 C 15.96875 -23.820312 15.96875 -23.976562 16 -24.125 C 16.03125 -24.269531 16.046875 -24.425781 16.046875 -24.59375 C 16.046875 -24.757812 16.050781 -24.914062 16.0625 -25.0625 C 16.082031 -25.21875 16.0625 -25.347656 16 -25.453125 C 15.894531 -25.710938 15.851562 -25.976562 15.875 -26.25 C 15.894531 -26.519531 15.9375 -26.785156 16 -27.046875 C 16.101562 -27.410156 16.175781 -27.773438 16.21875 -28.140625 C 16.269531 -28.515625 16.265625 -28.914062 16.203125 -29.34375 L 16.203125 -29.59375 C 16.335938 -29.925781 16.410156 -30.257812 16.421875 -30.59375 C 16.441406 -30.925781 16.46875 -31.226562 16.5 -31.5 C 16.664062 -31.726562 16.875 -31.882812 17.125 -31.96875 C 17.375 -32.050781 17.566406 -32.160156 17.703125 -32.296875 C 18.234375 -32.328125 18.734375 -32.328125 19.203125 -32.296875 C 19.671875 -32.265625 20.132812 -32.316406 20.59375 -32.453125 C 20.832031 -32.347656 21.054688 -32.269531 21.265625 -32.21875 C 21.484375 -32.175781 21.675781 -32.132812 21.84375 -32.09375 C 22.21875 -31.832031 22.40625 -31.484375 22.40625 -31.046875 C 22.40625 -30.878906 22.40625 -30.695312 22.40625 -30.5 C 22.40625 -30.300781 22.382812 -30.101562 22.34375 -29.90625 C 22.382812 -29.769531 22.4375 -29.648438 22.5 -29.546875 C 22.5625 -29.453125 22.613281 -29.320312 22.65625 -29.15625 C 22.613281 -29.082031 22.582031 -28.988281 22.5625 -28.875 C 22.550781 -28.757812 22.53125 -28.632812 22.5 -28.5 C 22.53125 -28.363281 22.5625 -28.195312 22.59375 -28 C 22.632812 -27.800781 22.671875 -27.617188 22.703125 -27.453125 C 22.703125 -26.921875 22.707031 -26.40625 22.71875 -25.90625 C 22.738281 -25.40625 22.734375 -24.90625 22.703125 -24.40625 C 22.703125 -23.863281 22.707031 -23.507812 22.71875 -23.34375 C 22.738281 -23.175781 22.816406 -22.84375 22.953125 -22.34375 Z M 15.65625 -9.75 C 15.550781 -10.019531 15.472656 -10.28125 15.421875 -10.53125 C 15.367188 -10.78125 15.3125 -11.003906 15.25 -11.203125 C 15.144531 -11.429688 15.019531 -11.644531 14.875 -11.84375 C 14.726562 -12.050781 14.601562 -12.269531 14.5 -12.5 C 14.164062 -12.664062 13.914062 -12.832031 13.75 -13 C 13.582031 -13.0625 13.421875 -13.109375 13.265625 -13.140625 C 13.117188 -13.179688 12.960938 -13.21875 12.796875 -13.25 C 12.660156 -13.3125 12.535156 -13.367188 12.421875 -13.421875 C 12.304688 -13.472656 12.179688 -13.515625 12.046875 -13.546875 C 11.816406 -13.453125 11.59375 -13.351562 11.375 -13.25 C 11.15625 -13.144531 10.945312 -13.046875 10.75 -12.953125 C 10.21875 -12.710938 9.851562 -12.28125 9.65625 -11.65625 C 9.613281 -11.519531 9.59375 -11.382812 9.59375 -11.25 C 9.59375 -11.113281 9.578125 -10.960938 9.546875 -10.796875 C 9.515625 -10.703125 9.457031 -10.601562 9.375 -10.5 C 9.289062 -10.394531 9.21875 -10.257812 9.15625 -10.09375 L 9.15625 -9.203125 C 9.21875 -8.765625 9.335938 -8.351562 9.515625 -7.96875 C 9.703125 -7.59375 10.015625 -7.269531 10.453125 -7 C 10.546875 -6.96875 10.632812 -6.910156 10.71875 -6.828125 C 10.800781 -6.742188 10.910156 -6.664062 11.046875 -6.59375 C 11.242188 -6.394531 11.445312 -6.296875 11.65625 -6.296875 C 12.1875 -6.367188 12.703125 -6.425781 13.203125 -6.46875 C 13.703125 -6.519531 14.1875 -6.644531 14.65625 -6.84375 C 14.851562 -7.007812 15 -7.175781 15.09375 -7.34375 C 15.195312 -7.476562 15.28125 -7.601562 15.34375 -7.71875 C 15.414062 -7.84375 15.5 -7.96875 15.59375 -8.09375 L 15.59375 -8.953125 C 15.59375 -9.117188 15.59375 -9.265625 15.59375 -9.390625 C 15.59375 -9.523438 15.613281 -9.644531 15.65625 -9.75 Z M 15.65625 -9.75 "/></g></g></g><g fill="#ffffff" fill-opacity="1"><g transform="translate(266.920396, 207.468753)"><g><path d="M 23.75 -17.65625 C 23.71875 -17.320312 23.691406 -16.976562 23.671875 -16.625 C 23.660156 -16.269531 23.617188 -15.925781 23.546875 -15.59375 C 23.515625 -15.257812 23.5 -14.898438 23.5 -14.515625 C 23.5 -14.140625 23.429688 -13.75 23.296875 -13.34375 C 23.234375 -13.25 23.148438 -13.140625 23.046875 -13.015625 C 22.953125 -12.898438 22.851562 -12.757812 22.75 -12.59375 C 22.75 -12.46875 22.753906 -12.351562 22.765625 -12.25 C 22.785156 -12.144531 22.8125 -12.03125 22.84375 -11.90625 C 22.78125 -11.738281 22.679688 -11.59375 22.546875 -11.46875 C 22.410156 -11.351562 22.28125 -11.265625 22.15625 -11.203125 C 21.820312 -11.097656 21.507812 -10.992188 21.21875 -10.890625 C 20.9375 -10.796875 20.644531 -10.71875 20.34375 -10.65625 C 19.882812 -10.582031 19.40625 -10.570312 18.90625 -10.625 C 18.40625 -10.675781 17.90625 -10.6875 17.40625 -10.65625 C 16.96875 -10.65625 16.503906 -10.644531 16.015625 -10.625 C 15.535156 -10.601562 15.046875 -10.59375 14.546875 -10.59375 L 11.75 -10.59375 C 11.613281 -10.5 11.46875 -10.46875 11.3125 -10.5 C 11.164062 -10.53125 11.03125 -10.515625 10.90625 -10.453125 C 10.769531 -10.515625 10.617188 -10.519531 10.453125 -10.46875 C 10.285156 -10.425781 10.117188 -10.4375 9.953125 -10.5 C 9.816406 -10.46875 9.691406 -10.441406 9.578125 -10.421875 C 9.460938 -10.410156 9.320312 -10.382812 9.15625 -10.34375 C 9.019531 -10.382812 8.898438 -10.425781 8.796875 -10.46875 C 8.703125 -10.519531 8.585938 -10.5 8.453125 -10.40625 C 8.515625 -10.300781 8.585938 -10.191406 8.671875 -10.078125 C 8.753906 -9.960938 8.8125 -9.820312 8.84375 -9.65625 C 8.945312 -9.519531 9.03125 -9.382812 9.09375 -9.25 C 9.164062 -9.113281 9.234375 -8.960938 9.296875 -8.796875 C 9.367188 -8.660156 9.421875 -8.519531 9.453125 -8.375 C 9.484375 -8.226562 9.515625 -8.085938 9.546875 -7.953125 C 9.710938 -7.785156 9.894531 -7.617188 10.09375 -7.453125 C 10.300781 -7.285156 10.503906 -7.117188 10.703125 -6.953125 C 10.867188 -6.921875 11.039062 -6.882812 11.21875 -6.84375 C 11.40625 -6.8125 11.582031 -6.78125 11.75 -6.75 C 11.945312 -6.71875 12.144531 -6.679688 12.34375 -6.640625 C 12.550781 -6.609375 12.769531 -6.613281 13 -6.65625 C 13.226562 -6.71875 13.441406 -6.707031 13.640625 -6.625 C 13.847656 -6.539062 14.066406 -6.484375 14.296875 -6.453125 C 14.597656 -6.484375 14.90625 -6.515625 15.21875 -6.546875 C 15.539062 -6.578125 15.851562 -6.613281 16.15625 -6.65625 C 16.28125 -6.75 16.414062 -6.835938 16.5625 -6.921875 C 16.71875 -7.003906 16.863281 -7.097656 17 -7.203125 C 17.4375 -7.296875 17.867188 -7.28125 18.296875 -7.15625 C 18.398438 -6.988281 18.523438 -6.820312 18.671875 -6.65625 C 18.828125 -6.488281 18.96875 -6.300781 19.09375 -6.09375 C 19.300781 -5.800781 19.503906 -5.507812 19.703125 -5.21875 C 19.898438 -4.9375 20.03125 -4.613281 20.09375 -4.25 C 20.164062 -4.082031 20.265625 -3.914062 20.390625 -3.75 C 20.523438 -3.582031 20.628906 -3.429688 20.703125 -3.296875 C 20.734375 -3.128906 20.722656 -2.976562 20.671875 -2.84375 C 20.617188 -2.71875 20.578125 -2.570312 20.546875 -2.40625 C 20.410156 -2.269531 20.242188 -2.148438 20.046875 -2.046875 C 20.015625 -2.046875 19.984375 -2.007812 19.953125 -1.9375 C 19.921875 -1.875 19.867188 -1.828125 19.796875 -1.796875 C 19.597656 -1.660156 19.398438 -1.523438 19.203125 -1.390625 C 19.003906 -1.265625 18.820312 -1.132812 18.65625 -1 C 18.1875 -0.601562 17.703125 -0.40625 17.203125 -0.40625 C 17.003906 -0.40625 16.851562 -0.382812 16.75 -0.34375 C 16.582031 -0.3125 16.414062 -0.242188 16.25 -0.140625 C 16.082031 -0.046875 15.898438 0.03125 15.703125 0.09375 C 15.535156 0.09375 15.367188 0.117188 15.203125 0.171875 C 15.035156 0.222656 14.867188 0.265625 14.703125 0.296875 C 14.597656 0.296875 14.476562 0.285156 14.34375 0.265625 C 14.21875 0.253906 14.085938 0.25 13.953125 0.25 C 13.648438 0.28125 13.347656 0.257812 13.046875 0.1875 C 12.742188 0.125 12.445312 0.09375 12.15625 0.09375 C 12.050781 0.0625 11.945312 0.03125 11.84375 0 C 11.75 -0.03125 11.648438 -0.046875 11.546875 -0.046875 C 10.984375 -0.015625 10.453125 -0.109375 9.953125 -0.328125 C 9.453125 -0.546875 8.953125 -0.769531 8.453125 -1 C 8.046875 -1.101562 7.757812 -1.285156 7.59375 -1.546875 C 7.363281 -1.816406 7.109375 -2.039062 6.828125 -2.21875 C 6.546875 -2.40625 6.238281 -2.566406 5.90625 -2.703125 C 5.695312 -2.765625 5.492188 -2.851562 5.296875 -2.96875 C 5.097656 -3.09375 4.882812 -3.21875 4.65625 -3.34375 C 4.613281 -3.476562 4.5625 -3.613281 4.5 -3.75 C 4.4375 -3.882812 4.367188 -4.019531 4.296875 -4.15625 C 4.234375 -4.25 4.140625 -4.34375 4.015625 -4.4375 C 3.898438 -4.539062 3.796875 -4.644531 3.703125 -4.75 C 3.597656 -4.851562 3.515625 -4.96875 3.453125 -5.09375 C 3.285156 -5.664062 3.117188 -6.222656 2.953125 -6.765625 C 2.785156 -7.316406 2.566406 -7.863281 2.296875 -8.40625 C 2.328125 -8.632812 2.351562 -8.875 2.375 -9.125 C 2.394531 -9.375 2.367188 -9.648438 2.296875 -9.953125 C 2.265625 -10.015625 2.25 -10.09375 2.25 -10.1875 C 2.25 -10.289062 2.25 -10.378906 2.25 -10.453125 C 2.25 -10.617188 2.253906 -10.757812 2.265625 -10.875 C 2.285156 -10.988281 2.28125 -11.097656 2.25 -11.203125 C 2.21875 -11.460938 2.179688 -11.726562 2.140625 -12 C 2.109375 -12.269531 2.128906 -12.519531 2.203125 -12.75 C 2.265625 -13.019531 2.328125 -13.285156 2.390625 -13.546875 C 2.460938 -13.816406 2.550781 -14.101562 2.65625 -14.40625 C 2.613281 -14.46875 2.59375 -14.566406 2.59375 -14.703125 C 2.59375 -14.835938 2.578125 -14.96875 2.546875 -15.09375 C 2.617188 -15.46875 2.6875 -15.835938 2.75 -16.203125 C 2.8125 -16.566406 2.894531 -16.914062 3 -17.25 C 3.101562 -17.445312 3.210938 -17.632812 3.328125 -17.8125 C 3.441406 -18 3.566406 -18.195312 3.703125 -18.40625 C 3.929688 -18.800781 4.113281 -19.179688 4.25 -19.546875 C 4.644531 -19.742188 4.882812 -19.867188 4.96875 -19.921875 C 5.050781 -19.972656 5.125 -20.046875 5.1875 -20.140625 C 5.257812 -20.242188 5.476562 -20.445312 5.84375 -20.75 C 5.8125 -20.851562 5.894531 -21.003906 6.09375 -21.203125 C 6.300781 -21.398438 6.367188 -21.566406 6.296875 -21.703125 C 6.597656 -22.265625 7.03125 -22.710938 7.59375 -23.046875 C 7.800781 -23.179688 7.992188 -23.320312 8.171875 -23.46875 C 8.359375 -23.625 8.519531 -23.769531 8.65625 -23.90625 C 8.820312 -24 8.976562 -24.035156 9.125 -24.015625 C 9.269531 -24.003906 9.410156 -24 9.546875 -24 C 9.648438 -24.03125 9.757812 -24.050781 9.875 -24.0625 C 9.988281 -24.082031 10.113281 -24.113281 10.25 -24.15625 C 10.3125 -24.1875 10.394531 -24.21875 10.5 -24.25 C 10.601562 -24.28125 10.6875 -24.332031 10.75 -24.40625 C 10.8125 -24.4375 10.875 -24.46875 10.9375 -24.5 C 11.007812 -24.53125 11.082031 -24.546875 11.15625 -24.546875 C 11.445312 -24.578125 11.726562 -24.660156 12 -24.796875 C 12.269531 -24.929688 12.519531 -25.066406 12.75 -25.203125 C 13.25 -25.003906 13.765625 -24.9375 14.296875 -25 C 14.628906 -25.03125 14.953125 -25.007812 15.265625 -24.9375 C 15.585938 -24.875 15.882812 -24.796875 16.15625 -24.703125 L 16.84375 -24.90625 C 17.113281 -24.863281 17.363281 -24.773438 17.59375 -24.640625 C 17.832031 -24.515625 18.066406 -24.382812 18.296875 -24.25 L 18.75 -24.25 C 18.78125 -24.21875 18.8125 -24.191406 18.84375 -24.171875 C 18.882812 -24.160156 18.921875 -24.132812 18.953125 -24.09375 C 19.316406 -23.757812 19.664062 -23.453125 20 -23.171875 C 20.332031 -22.890625 20.679688 -22.597656 21.046875 -22.296875 C 21.546875 -21.960938 21.863281 -21.5625 22 -21.09375 C 22.132812 -20.894531 22.25 -20.75 22.34375 -20.65625 C 22.75 -20.320312 23.101562 -19.867188 23.40625 -19.296875 C 23.40625 -19.234375 23.410156 -19.140625 23.421875 -19.015625 C 23.441406 -18.898438 23.453125 -18.796875 23.453125 -18.703125 C 23.421875 -18.535156 23.453125 -18.367188 23.546875 -18.203125 C 23.648438 -18.035156 23.71875 -17.851562 23.75 -17.65625 Z M 17.40625 -16 L 17.40625 -17.25 C 17.40625 -17.414062 17.382812 -17.515625 17.34375 -17.546875 C 17.3125 -17.648438 17.269531 -17.75 17.21875 -17.84375 C 17.175781 -17.945312 17.132812 -18.015625 17.09375 -18.046875 L 17.09375 -18.90625 L 16.953125 -19.046875 C 16.816406 -19.046875 16.648438 -19.082031 16.453125 -19.15625 C 16.378906 -19.445312 16.296875 -19.675781 16.203125 -19.84375 C 16.097656 -19.976562 15.960938 -20.0625 15.796875 -20.09375 C 15.628906 -20.132812 15.445312 -20.1875 15.25 -20.25 C 14.8125 -20.113281 14.34375 -19.992188 13.84375 -19.890625 C 13.34375 -19.796875 12.863281 -19.664062 12.40625 -19.5 C 12.164062 -19.46875 11.945312 -19.453125 11.75 -19.453125 C 11.550781 -19.453125 11.351562 -19.4375 11.15625 -19.40625 C 10.820312 -19.269531 10.53125 -19.054688 10.28125 -18.765625 C 10.03125 -18.484375 9.785156 -18.210938 9.546875 -17.953125 C 9.410156 -17.785156 9.289062 -17.597656 9.1875 -17.390625 C 9.09375 -17.191406 8.976562 -17.007812 8.84375 -16.84375 C 8.8125 -16.8125 8.796875 -16.710938 8.796875 -16.546875 C 8.898438 -16.285156 9.050781 -16.117188 9.25 -16.046875 C 9.445312 -16.015625 9.644531 -15.960938 9.84375 -15.890625 C 10.050781 -15.828125 10.269531 -15.765625 10.5 -15.703125 C 10.601562 -15.734375 10.695312 -15.75 10.78125 -15.75 C 10.863281 -15.75 10.953125 -15.765625 11.046875 -15.796875 C 11.453125 -15.960938 11.785156 -15.976562 12.046875 -15.84375 C 12.316406 -15.8125 12.554688 -15.8125 12.765625 -15.84375 C 12.984375 -15.882812 13.210938 -15.921875 13.453125 -15.953125 C 13.648438 -15.847656 13.859375 -15.78125 14.078125 -15.75 C 14.296875 -15.71875 14.503906 -15.664062 14.703125 -15.59375 C 15.128906 -15.46875 15.539062 -15.40625 15.9375 -15.40625 C 16.34375 -15.40625 16.75 -15.453125 17.15625 -15.546875 C 17.320312 -15.710938 17.40625 -15.863281 17.40625 -16 Z M 17.40625 -16 "/></g></g></g><g fill="#ffffff" fill-opacity="1"><g transform="translate(292.816384, 207.468753)"><g><path d="M 25.703125 -19.796875 C 25.671875 -19.703125 25.65625 -19.617188 25.65625 -19.546875 C 25.65625 -19.484375 25.632812 -19.398438 25.59375 -19.296875 C 25.46875 -19.035156 25.3125 -18.753906 25.125 -18.453125 C 24.9375 -18.148438 24.710938 -17.898438 24.453125 -17.703125 C 24.117188 -17.429688 23.804688 -17.101562 23.515625 -16.71875 C 23.234375 -16.34375 22.960938 -15.96875 22.703125 -15.59375 C 22.535156 -15.257812 22.367188 -15.007812 22.203125 -14.84375 C 22.035156 -14.675781 21.867188 -14.535156 21.703125 -14.421875 C 21.535156 -14.304688 21.414062 -14.179688 21.34375 -14.046875 C 21.175781 -13.816406 20.992188 -13.640625 20.796875 -13.515625 C 20.597656 -13.398438 20.398438 -13.257812 20.203125 -13.09375 C 20.097656 -13 19.992188 -12.882812 19.890625 -12.75 C 19.796875 -12.613281 19.71875 -12.476562 19.65625 -12.34375 C 19.6875 -11.914062 19.816406 -11.515625 20.046875 -11.140625 C 20.285156 -10.773438 20.46875 -10.394531 20.59375 -10 C 20.925781 -9.769531 21.21875 -9.492188 21.46875 -9.171875 C 21.71875 -8.859375 21.945312 -8.519531 22.15625 -8.15625 C 22.414062 -7.78125 22.703125 -7.425781 23.015625 -7.09375 C 23.335938 -6.757812 23.664062 -6.425781 24 -6.09375 C 24.132812 -5.96875 24.273438 -5.820312 24.421875 -5.65625 C 24.578125 -5.488281 24.71875 -5.320312 24.84375 -5.15625 C 24.945312 -4.851562 25.054688 -4.550781 25.171875 -4.25 C 25.285156 -3.945312 25.378906 -3.664062 25.453125 -3.40625 C 25.148438 -2.863281 24.816406 -2.363281 24.453125 -1.90625 C 24.453125 -1.863281 24.441406 -1.8125 24.421875 -1.75 C 24.410156 -1.6875 24.40625 -1.617188 24.40625 -1.546875 C 24.300781 -1.285156 24.132812 -1.101562 23.90625 -1 C 23.832031 -0.9375 23.742188 -0.882812 23.640625 -0.84375 C 23.546875 -0.8125 23.46875 -0.78125 23.40625 -0.75 C 23.269531 -0.613281 23.140625 -0.46875 23.015625 -0.3125 C 22.898438 -0.164062 22.78125 -0.03125 22.65625 0.09375 C 22.414062 0.164062 22.1875 0.222656 21.96875 0.265625 C 21.757812 0.316406 21.550781 0.378906 21.34375 0.453125 C 21.082031 0.421875 20.910156 0.320312 20.828125 0.15625 C 20.742188 -0.0078125 20.617188 -0.160156 20.453125 -0.296875 C 20.316406 -0.367188 20.164062 -0.445312 20 -0.53125 C 19.832031 -0.613281 19.648438 -0.6875 19.453125 -0.75 C 19.316406 -0.976562 19.109375 -1.175781 18.828125 -1.34375 C 18.546875 -1.507812 18.269531 -1.660156 18 -1.796875 C 17.96875 -1.867188 17.929688 -1.953125 17.890625 -2.046875 C 17.859375 -2.148438 17.8125 -2.234375 17.75 -2.296875 C 17.644531 -2.328125 17.535156 -2.359375 17.421875 -2.390625 C 17.304688 -2.429688 17.21875 -2.5 17.15625 -2.59375 C 17.082031 -2.664062 16.976562 -2.785156 16.84375 -2.953125 C 16.613281 -3.085938 16.421875 -3.269531 16.265625 -3.5 C 16.117188 -3.726562 15.960938 -3.925781 15.796875 -4.09375 C 15.597656 -4.300781 15.398438 -4.492188 15.203125 -4.671875 C 15.003906 -4.859375 14.820312 -5.050781 14.65625 -5.25 C 14.613281 -5.3125 14.582031 -5.367188 14.5625 -5.421875 C 14.550781 -5.472656 14.515625 -5.53125 14.453125 -5.59375 C 14.316406 -5.800781 14.113281 -5.90625 13.84375 -5.90625 C 13.78125 -5.90625 13.75 -5.882812 13.75 -5.84375 C 13.550781 -5.675781 13.382812 -5.5 13.25 -5.3125 C 13.113281 -5.132812 13.03125 -4.914062 13 -4.65625 C 12.96875 -4.613281 12.953125 -4.578125 12.953125 -4.546875 C 12.953125 -4.515625 12.9375 -4.484375 12.90625 -4.453125 C 12.664062 -4.316406 12.488281 -4.140625 12.375 -3.921875 C 12.257812 -3.703125 12.117188 -3.507812 11.953125 -3.34375 C 11.847656 -3.175781 11.71875 -3 11.5625 -2.8125 C 11.414062 -2.632812 11.28125 -2.460938 11.15625 -2.296875 C 10.945312 -2.066406 10.742188 -1.828125 10.546875 -1.578125 C 10.347656 -1.328125 10.132812 -1.101562 9.90625 -0.90625 C 9.738281 -0.800781 9.601562 -0.664062 9.5 -0.5 C 9.363281 -0.332031 9.242188 -0.179688 9.140625 -0.046875 C 9.046875 0.0859375 8.898438 0.203125 8.703125 0.296875 C 8.535156 0.367188 8.375 0.460938 8.21875 0.578125 C 8.070312 0.691406 7.898438 0.78125 7.703125 0.84375 C 7.628906 0.84375 7.539062 0.867188 7.4375 0.921875 C 7.34375 0.972656 7.265625 1.03125 7.203125 1.09375 C 7.097656 1.132812 7.007812 1.175781 6.9375 1.21875 C 6.875 1.269531 6.78125 1.296875 6.65625 1.296875 C 6.382812 1.234375 6.195312 1.132812 6.09375 1 C 5.832031 0.664062 5.617188 0.382812 5.453125 0.15625 C 5.316406 -0.113281 5.164062 -0.378906 5 -0.640625 C 4.832031 -0.910156 4.613281 -1.164062 4.34375 -1.40625 C 4.113281 -1.664062 3.941406 -1.945312 3.828125 -2.25 C 3.710938 -2.550781 3.570312 -2.832031 3.40625 -3.09375 C 3.53125 -3.5625 3.632812 -3.910156 3.71875 -4.140625 C 3.800781 -4.378906 3.898438 -4.613281 4.015625 -4.84375 C 4.140625 -5.082031 4.332031 -5.414062 4.59375 -5.84375 C 4.863281 -6.113281 5.125 -6.398438 5.375 -6.703125 C 5.625 -7.003906 5.847656 -7.320312 6.046875 -7.65625 C 6.285156 -8.050781 6.53125 -8.457031 6.78125 -8.875 C 7.03125 -9.289062 7.320312 -9.664062 7.65625 -10 C 7.820312 -10.195312 7.988281 -10.410156 8.15625 -10.640625 C 8.320312 -10.878906 8.488281 -11.113281 8.65625 -11.34375 C 8.71875 -11.414062 8.804688 -11.492188 8.921875 -11.578125 C 9.035156 -11.660156 9.128906 -11.769531 9.203125 -11.90625 C 9.265625 -11.96875 9.296875 -12.054688 9.296875 -12.171875 C 9.296875 -12.285156 9.265625 -12.363281 9.203125 -12.40625 C 8.835938 -12.769531 8.46875 -13.132812 8.09375 -13.5 C 7.726562 -13.863281 7.3125 -14.195312 6.84375 -14.5 C 6.675781 -14.5625 6.523438 -14.648438 6.390625 -14.765625 C 6.265625 -14.890625 6.132812 -14.96875 6 -15 C 5.664062 -15.164062 5.398438 -15.359375 5.203125 -15.578125 C 5.003906 -15.796875 4.820312 -16.050781 4.65625 -16.34375 C 4.582031 -16.476562 4.492188 -16.628906 4.390625 -16.796875 C 4.296875 -16.960938 4.21875 -17.113281 4.15625 -17.25 C 3.820312 -17.476562 3.507812 -17.703125 3.21875 -17.921875 C 2.9375 -18.140625 2.628906 -18.316406 2.296875 -18.453125 C 2.234375 -18.585938 2.203125 -18.6875 2.203125 -18.75 C 2.203125 -18.914062 2.207031 -19.066406 2.21875 -19.203125 C 2.238281 -19.335938 2.25 -19.46875 2.25 -19.59375 C 2.414062 -19.695312 2.546875 -19.796875 2.640625 -19.890625 C 2.742188 -19.992188 2.847656 -20.097656 2.953125 -20.203125 C 3.085938 -20.367188 3.160156 -20.554688 3.171875 -20.765625 C 3.191406 -20.984375 3.1875 -21.210938 3.15625 -21.453125 C 3.25 -21.515625 3.328125 -21.578125 3.390625 -21.640625 C 3.460938 -21.710938 3.53125 -21.765625 3.59375 -21.796875 C 3.925781 -21.898438 4.234375 -22.050781 4.515625 -22.25 C 4.804688 -22.445312 5.019531 -22.695312 5.15625 -23 C 5.488281 -23.0625 5.800781 -23.132812 6.09375 -23.21875 C 6.394531 -23.300781 6.695312 -23.34375 7 -23.34375 C 7.195312 -23.34375 7.382812 -23.367188 7.5625 -23.421875 C 7.75 -23.472656 7.945312 -23.515625 8.15625 -23.546875 C 8.820312 -23.117188 9.28125 -22.785156 9.53125 -22.546875 C 9.78125 -22.316406 10.101562 -21.882812 10.5 -21.25 C 10.664062 -21.144531 10.863281 -21.007812 11.09375 -20.84375 C 11.132812 -20.75 11.160156 -20.648438 11.171875 -20.546875 C 11.191406 -20.453125 11.21875 -20.351562 11.25 -20.25 C 11.414062 -20.113281 11.582031 -19.992188 11.75 -19.890625 C 11.914062 -19.796875 12.050781 -19.648438 12.15625 -19.453125 C 12.71875 -18.785156 13.363281 -18.25 14.09375 -17.84375 C 14.164062 -17.84375 14.269531 -17.878906 14.40625 -17.953125 C 14.46875 -17.984375 14.515625 -18.03125 14.546875 -18.09375 C 14.578125 -18.164062 14.613281 -18.21875 14.65625 -18.25 C 15.21875 -18.6875 15.695312 -19.21875 16.09375 -19.84375 C 16.257812 -20.113281 16.507812 -20.195312 16.84375 -20.09375 C 16.976562 -20.03125 17.082031 -20.03125 17.15625 -20.09375 C 17.25 -20.09375 17.296875 -20.144531 17.296875 -20.25 C 17.296875 -20.6875 17.476562 -21.085938 17.84375 -21.453125 C 17.976562 -21.617188 18.101562 -21.785156 18.21875 -21.953125 C 18.34375 -22.117188 18.503906 -22.25 18.703125 -22.34375 C 18.898438 -22.476562 19.03125 -22.726562 19.09375 -23.09375 C 19.132812 -23.394531 19.238281 -23.632812 19.40625 -23.8125 C 19.570312 -24 19.769531 -24.128906 20 -24.203125 C 20.195312 -24.171875 20.394531 -24.113281 20.59375 -24.03125 C 20.800781 -23.945312 20.988281 -23.882812 21.15625 -23.84375 C 21.320312 -23.8125 21.488281 -23.769531 21.65625 -23.71875 C 21.820312 -23.675781 21.988281 -23.617188 22.15625 -23.546875 C 22.28125 -23.410156 22.425781 -23.273438 22.59375 -23.140625 C 22.757812 -23.015625 22.910156 -22.882812 23.046875 -22.75 L 23.046875 -22.15625 C 23.285156 -21.78125 23.570312 -21.546875 23.90625 -21.453125 C 24.070312 -21.421875 24.210938 -21.378906 24.328125 -21.328125 C 24.441406 -21.273438 24.566406 -21.21875 24.703125 -21.15625 L 24.703125 -21.09375 C 24.703125 -21.09375 24.742188 -21.019531 24.828125 -20.875 C 24.910156 -20.726562 24.96875 -20.570312 25 -20.40625 C 25.101562 -20.332031 25.210938 -20.238281 25.328125 -20.125 C 25.441406 -20.007812 25.566406 -19.898438 25.703125 -19.796875 Z M 25.703125 -19.796875 "/></g></g></g></svg>