<svg xmlns="http://www.w3.org/2000/svg" width="108" height="50" fill="none" viewBox="0 0 108 50">
  <path fill="#fff" d="M1.4 9.72c0-2.827.773-4.987 2.32-6.48C5.267 1.747 7.813 1 11.36 1h9.36v4.4h-9.36c-1.467 0-2.56.347-3.28 1.04-.693.693-1.04 1.787-1.04 3.28v3.88h11.92V18H7.04v11H1.4V9.72Zm34.205 19.8c-3.653 0-6.413-.773-8.28-2.32-1.867-1.573-2.8-3.747-2.8-6.52V1h5.64v19.68c0 2.96 1.813 4.44 5.44 4.44 3.627 0 5.44-1.48 5.44-4.44V1h5.64v19.68c0 2.773-.933 4.947-2.8 6.52-1.867 1.547-4.627 2.32-8.28 2.32ZM52.478 1h2.92c1.467 0 2.64.2 3.52.6.88.4 1.64 1.04 2.28 1.92.64.853 1.387 2.147 2.24 3.88l2.32 4.68 2.32-4.68c.853-1.733 1.6-3.027 2.24-3.88.64-.88 1.4-1.52 2.28-1.92.88-.4 2.053-.6 3.52-.6h2.92v28h-5.12V6.88c-.32 0-.587.147-.8.44-.213.293-.533.813-.96 1.56l-6.4 11.88-6.4-11.88c-.426-.747-.746-1.267-.96-1.56-.213-.293-.48-.453-.8-.48V29h-5.12V1Zm43.6 28.48c-3.707 0-6.547-.853-8.52-2.56-1.947-1.733-2.92-4.28-2.92-7.64v-8.56c0-3.36.973-5.893 2.92-7.6 1.973-1.733 4.813-2.6 8.52-2.6 3.706 0 6.533.867 8.48 2.6 1.973 1.707 2.96 4.24 2.96 7.6v8.56c0 3.36-.987 5.907-2.96 7.64-1.947 1.707-4.774 2.56-8.48 2.56Zm0-4.4c1.866 0 3.293-.493 4.28-1.48 1.013-1.013 1.52-2.453 1.52-4.32v-8.56c0-1.867-.507-3.293-1.52-4.28-.987-1.013-2.414-1.52-4.28-1.52-1.867 0-3.307.507-4.32 1.52-.987.987-1.48 2.413-1.48 4.28v8.56c0 1.867.493 3.307 1.48 4.32 1.013.987 2.453 1.48 4.32 1.48ZM.472 38.8h1.52V50H.472V38.8Zm13.27 0v9.216c0 .661-.14 1.157-.417 1.488-.266.33-.693.496-1.28.496h-1.072l-4.608-8.864V50h-1.44V38.8h1.76l5.072 9.888h.096c.17 0 .288-.064.352-.192s.096-.363.096-.704V38.8h1.44Zm2.746 0h4.032c1.205 0 2.16.181 2.864.544.704.363 1.21.95 1.52 1.76.32.81.48 1.91.48 3.296 0 1.397-.16 2.501-.48 3.312-.31.8-.816 1.381-1.52 1.744-.704.363-1.659.544-2.864.544h-4.032V38.8Zm4.032 10c.821 0 1.472-.144 1.952-.432.49-.288.842-.747 1.056-1.376.224-.64.336-1.499.336-2.576 0-1.088-.112-1.952-.336-2.592-.214-.64-.566-1.104-1.056-1.392-.48-.288-1.131-.432-1.952-.432h-2.512v8.8h2.512ZM31.017 50c-1.301 0-2.256-.283-2.864-.848-.608-.565-.912-1.413-.912-2.544v-4.416c0-1.13.304-1.979.912-2.544.608-.565 1.563-.848 2.864-.848h3.824V40h-3.824c-.778 0-1.35.181-1.712.544-.362.352-.544.901-.544 1.648v1.6h5.296v1.216h-5.296v1.6c0 .747.182 1.301.544 1.664.363.352.934.528 1.712.528h3.888V50h-3.888Zm10.21-5.536L44.857 50h-1.744l-2.88-4.4-2.896 4.4h-1.712l3.744-5.712-3.584-5.488h1.712l2.864 4.352 2.864-4.352h1.696l-3.696 5.664Z"/>
</svg>
