<svg xmlns="http://www.w3.org/2000/svg" xmlns:xlink="http://www.w3.org/1999/xlink" width="500" zoomAndPan="magnify" viewBox="0 0 375 374.999991" height="500" preserveAspectRatio="xMidYMid meet" version="1.0"><defs><g/></defs><path stroke-linecap="butt" transform="matrix(0.9375, 0, 0, 0.9375, 0.0000045, 56.249996)" fill="none" stroke-linejoin="miter" d="M 109.812502 119.391678 C 117.57917 114.020845 133.008337 101.620844 138.183338 97.420844 L 132.179171 81.795843 C 118.800003 73.200009 97.608335 64.216675 81.200001 58.016674 L 66.6 76.620842 C 81.395834 81.991676 97.412502 90.00001 106.004169 95.808344 C 103.416669 98.004177 98.387502 101.620844 93.800001 104.987511 Z M 63.816666 222.420852 C 73.3875 224.179185 84.812501 225.204185 95.800001 225.204185 C 116.212503 225.204185 135.204171 217.391685 135.204171 190.779183 C 135.204171 172.420849 123.583337 154.791681 102.391669 133.404179 C 97.216668 128.183346 91.991668 123.395845 86.183334 117.391678 L 66.795833 133.600013 C 73.3875 138.583346 79.979167 144.39168 85.008334 149.17918 C 93.800001 158.016681 107.616669 175.983349 107.616669 187.99585 C 107.616669 197.175017 100.587502 200.787517 90.575001 200.787517 C 81.004167 200.787517 70.995833 199.179184 60.008332 196.200017 Z M 193.800008 198.591684 C 187.791674 179.987516 172.412507 150.008347 160.008339 134.820846 L 138.379171 146.200014 C 151.808339 162.800015 164.795839 191.60835 169.775006 211.383351 Z M 72.020833 173.787515 L 56.983332 154.404181 C 45.216665 167.391682 23.779163 183.991683 6.591662 193.22085 L 21.779163 214.608351 C 42.820831 201.812517 60.987499 185.604183 72.020833 173.787515 Z M 330.616684 135.212513 C 343.408351 147.420847 350.975018 160.212514 350.975018 173.591682 C 350.975018 190.000016 335.791684 202.595851 308.204182 202.595851 C 288.625014 202.595851 278.612513 193.612517 278.612513 177.400016 C 278.612513 173.787515 279.00418 168.808348 279.395847 162.995848 C 281.983347 162.995848 284.812514 162.995848 287.404181 162.995848 C 299.608348 162.995848 311.183349 162.216681 322.412516 161.187515 L 323.000016 137.60418 C 310.008349 139.020846 295.408348 140.000013 283.20418 140.000013 L 281.787514 140.000013 C 282.812514 131.208346 283.983347 121.783345 285.204181 112.995845 C 301.220848 112.995845 312.012516 112.408345 323.779183 111.187511 L 324.60835 87.604176 C 315.187516 89.020843 302.391682 89.804177 288.183347 90.00001 C 289.208348 83.600009 289.795848 78.375009 290.379181 75.008342 C 291.212514 69.783342 292.187514 64.608342 293.800014 57.379174 L 266.016679 55.816674 C 266.408346 62.408341 266.016679 67.975008 265.575013 73.395842 C 265.187513 77.791676 264.795846 83.212509 264.012513 89.216676 C 249.608345 87.995843 234.812511 85.604176 223.38751 81.795843 L 222.020843 104.791677 C 233.595844 108.016678 247.608345 110.408345 261.375012 111.825011 C 260.204179 120.808345 259.179179 129.987512 258.008345 138.77918 C 245.216678 137.60418 231.78751 135.408346 218.995843 131.012513 L 217.579176 154.987514 C 228.220844 158.016681 241.212511 160.212514 255.616679 161.579181 C 254.783345 169.783348 254.200012 176.812516 254.200012 181.600016 C 254.200012 214.608351 276.220847 228.183352 307.420849 228.183352 C 350.783352 228.183352 377.58752 206.600018 377.58752 176.812516 C 377.58752 160.016681 371.583353 146.00418 358.400019 129.208346 Z M 330.616684 135.212513 " stroke="#000000" stroke-width="10" stroke-opacity="1" stroke-miterlimit="4"/><g fill="#d40e0e" fill-opacity="1"><g transform="translate(0.0000045, 259.687483)"><g><path d="M 102.9375 -91.5 C 110.25 -96.5625 124.6875 -108.1875 129.5625 -112.125 L 123.9375 -126.75 C 111.375 -134.8125 91.5 -143.25 76.125 -149.0625 L 62.4375 -131.625 C 76.3125 -126.5625 91.3125 -119.0625 99.375 -113.625 C 96.9375 -111.5625 92.25 -108.1875 87.9375 -105 Z M 59.8125 5.0625 C 68.8125 6.75 79.5 7.6875 89.8125 7.6875 C 108.9375 7.6875 126.75 0.375 126.75 -24.5625 C 126.75 -41.8125 115.875 -58.3125 96 -78.375 C 91.125 -83.25 86.25 -87.75 80.8125 -93.375 L 62.625 -78.1875 C 68.8125 -73.5 75 -68.0625 79.6875 -63.5625 C 87.9375 -55.3125 100.875 -38.4375 100.875 -27.1875 C 100.875 -18.5625 94.3125 -15.1875 84.9375 -15.1875 C 75.9375 -15.1875 66.5625 -16.6875 56.25 -19.5 Z M 181.6875 -17.25 C 176.0625 -34.6875 161.625 -62.8125 150 -77.0625 L 129.75 -66.375 C 142.3125 -50.8125 154.5 -23.8125 159.1875 -5.25 Z M 67.5 -40.5 L 53.4375 -58.6875 C 42.375 -46.5 22.3125 -30.9375 6.1875 -22.3125 L 20.4375 -2.25 C 40.125 -14.25 57.1875 -29.4375 67.5 -40.5 Z M 67.5 -40.5 "/></g></g></g><g fill="#d40e0e" fill-opacity="1"><g transform="translate(187.500039, 259.687483)"><g><path d="M 122.4375 -76.6875 C 134.4375 -65.25 141.5625 -53.25 141.5625 -40.6875 C 141.5625 -25.3125 127.3125 -13.5 101.4375 -13.5 C 83.0625 -13.5 73.6875 -21.9375 73.6875 -37.125 C 73.6875 -40.5 74.0625 -45.1875 74.4375 -50.625 C 76.875 -50.625 79.5 -50.625 81.9375 -50.625 C 93.375 -50.625 104.25 -51.375 114.75 -52.3125 L 115.3125 -74.4375 C 103.125 -73.125 89.4375 -72.1875 78 -72.1875 L 76.6875 -72.1875 C 77.625 -80.4375 78.75 -89.25 79.875 -97.5 C 94.875 -97.5 105 -98.0625 116.0625 -99.1875 L 116.8125 -121.3125 C 108 -120 96 -119.25 82.6875 -119.0625 C 83.625 -125.0625 84.1875 -129.9375 84.75 -133.125 C 85.5 -138 86.4375 -142.875 87.9375 -149.625 L 61.875 -151.125 C 62.25 -144.9375 61.875 -139.6875 61.5 -134.625 C 61.125 -130.5 60.75 -125.4375 60 -119.8125 C 46.5 -120.9375 32.625 -123.1875 21.9375 -126.75 L 20.625 -105.1875 C 31.5 -102.1875 44.625 -99.9375 57.5625 -98.625 C 56.4375 -90.1875 55.5 -81.5625 54.375 -73.3125 C 42.375 -74.4375 29.8125 -76.5 17.8125 -80.625 L 16.5 -58.125 C 26.4375 -55.3125 38.625 -53.25 52.125 -51.9375 C 51.375 -44.25 50.8125 -37.6875 50.8125 -33.1875 C 50.8125 -2.25 71.4375 10.5 100.6875 10.5 C 141.375 10.5 166.5 -9.75 166.5 -37.6875 C 166.5 -53.4375 160.875 -66.5625 148.5 -82.3125 Z M 122.4375 -76.6875 "/></g></g></g></svg>